<?xml version="1.0" encoding="UTF-8" standalone="no"?>
<!-- Created with Inkscape (http://www.inkscape.org/) -->

<svg
   xmlns:dc="http://purl.org/dc/elements/1.1/"
   xmlns:cc="http://creativecommons.org/ns#"
   xmlns:rdf="http://www.w3.org/1999/02/22-rdf-syntax-ns#"
   xmlns:svg="http://www.w3.org/2000/svg"
   xmlns="http://www.w3.org/2000/svg"
   xmlns:sodipodi="http://sodipodi.sourceforge.net/DTD/sodipodi-0.dtd"
   xmlns:inkscape="http://www.inkscape.org/namespaces/inkscape"
   width="210mm"
   height="297mm"
   viewBox="0 0 210 297"
   version="1.1"
   id="svg8"
   inkscape:version="0.92.2 5c3e80d, 2017-08-06"
   sodipodi:docname="drawing2.svg"
   inkscape:export-filename="/Users/niemeyek/Desktop/logo-tt.png"
   inkscape:export-xdpi="300"
   inkscape:export-ydpi="300">
  <defs
     id="defs2" />
  <sodipodi:namedview
     id="base"
     pagecolor="#ffffff"
     bordercolor="#666666"
     borderopacity="1.0"
     inkscape:pageopacity="1"
     inkscape:pageshadow="2"
     inkscape:zoom="1.3986784"
     inkscape:cx="297.10778"
     inkscape:cy="574.80959"
     inkscape:document-units="mm"
     inkscape:current-layer="layer1"
     showgrid="false"
     inkscape:window-width="1405"
     inkscape:window-height="843"
     inkscape:window-x="13"
     inkscape:window-y="0"
     inkscape:window-maximized="0" />
  <metadata
     id="metadata5">
    <rdf:RDF>
      <cc:Work
         rdf:about="">
        <dc:format>image/svg+xml</dc:format>
        <dc:type
           rdf:resource="http://purl.org/dc/dcmitype/StillImage" />
        <dc:title></dc:title>
      </cc:Work>
    </rdf:RDF>
  </metadata>
  <g
     inkscape:label="Layer 1"
     inkscape:groupmode="layer"
     id="layer1">
    <g
       id="g3775"
       transform="matrix(0.06454758,0,0,-0.06454758,105.4675,142.46534)"
       inkscape:export-xdpi="96"
       inkscape:export-ydpi="96">
      <path
         d="m 0,0 c -183.598,0 -333.559,-143.911 -343.294,-325.08 -8.498,-2.217 -24.572,-5.637 -55.837,-10.937 -4.564,4.435 -20.609,18.739 -21.252,30.737 -0.745,13.894 40.157,21.703 35.865,42.255 -0.861,4.128 -3.832,6.78 -5.869,7.692 -1.617,0.725 -2.658,0.755 -2.498,2.847 0.158,2.047 1.077,3.741 2.617,5.112 0.127,0.113 0.141,0.237 0.115,0.404 -1.586,9.835 -11.294,8.053 -9.479,9.369 0.669,0.486 1.034,1.058 1.274,1.839 0.127,0.41 0.152,1.002 0.208,1.424 0.218,1.629 0.851,2.028 1.938,3.06 1.373,1.303 1.693,2.785 0.857,4.597 -0.644,1.393 -1.913,2.434 -2.734,3.711 -0.749,1.166 -1.156,2.367 -1.264,3.604 0.119,0.123 0.23,0.253 0.351,0.373 1.841,1.847 2.122,3.657 3.843,5.637 4.455,5.128 -6.375,10.774 -9.658,13.579 -9.025,7.714 -13.986,8.704 -21.205,18.315 -0.086,1.263 -1.885,3.215 -2.288,4.415 -0.659,1.957 2.053,4.357 1.667,6.363 -0.72,3.739 -1.782,6.919 -3.033,9.689 0.103,0.443 0.182,0.892 0.222,1.353 0.213,2.535 -0.672,5.083 -2.254,7.054 -0.781,0.972 -1.763,1.819 -2.854,2.425 -0.309,0.171 -0.655,0.307 -1.009,0.436 -0.031,0.414 -0.1,0.833 -0.24,1.259 -0.14,0.423 -0.434,0.678 -0.652,1.017 8.06,8.709 5.966,12.638 -13.683,20.463 -25.177,29.113 -56.623,32.881 -94.708,26.627 15.339,10.448 23.84,9.236 17.127,25.43 5.746,4.076 13.05,3.573 19.819,5.814 6.496,2.151 5.087,3.467 3.893,11.435 4.808,2.072 10.754,4.773 10.391,10.035 -0.201,2.908 -15.986,17.248 -23.641,23.319 -93.923,74.499 -380.675,-63.342 -169.222,-309.538 8.769,-10.208 8.605,-33.183 16.209,-38.961 9.947,-3.693 47.251,80.179 43.216,80.175 -8.41,5.392 -0.266,21.798 -1.325,22.641 -0.114,0.09 -35.797,22.569 -27.814,57.678 2.669,11.736 8.634,25.389 21.754,20.885 -2.953,-39.364 11.935,-65.381 32.636,-78.781 6.978,-4.518 14.526,-8.037 21.872,-11.909 3.096,-22.073 0.283,-32.18 0.963,-39 -0.412,0.207 4.57,-0.536 12.113,-1.506 -0.404,-1.061 -0.856,-2.114 -1.129,-3.196 -0.531,-2.1 -0.336,-3.92 0.286,-5.578 -2.098,-2.357 -3.816,-5.191 -3.469,-7.919 -3.211,-1.505 -5.479,-4.605 -4.528,-8.645 0.604,-2.565 2.176,-4.179 4.192,-5.178 0.203,-0.984 -5.882,-15.336 -4.844,-18.519 -5.617,-4.587 -13.325,-11.299 -19.393,-17.164 -28.032,-6.458 -59.657,-11.746 -90.108,-48.298 -90.862,-6.87 -75.837,-21.07 -122.057,-42.229 -48.34,21.109 -152.106,29.062 -186.383,30.408 -6.08,0.238 -16.124,4.294 -16.665,3.845 -53.412,8.118 -55.298,54.487 -67.512,50.848 -11.964,0.854 -24.355,-5.554 -23.07,-10.806 -4.252,-1.154 0.095,0.263 -9.831,-0.731 -8.546,-0.854 -16.031,-10.158 -16.665,-11.964 -2.246,-6.399 3.418,-11.537 -7.263,-11.537 -11.542,-4.74 43.636,-58.303 59.495,-53.838 9.516,2.678 21.288,-9.18 34.936,-11.537 -3.452,0.509 10,-6.591 63.666,-21.364 46.758,-12.874 61.125,-26.541 133.199,-41.19 16.308,-11.017 53.049,-8.384 69.337,-2.394 49.661,7.185 59.319,6.892 84.172,11.937 16.199,3.287 29.086,12.438 47.893,20.665 25.469,-11.024 49.439,-6.262 70.024,-72.516 26.309,-84.683 44.721,-75.532 38.716,-106.618 -1.405,-7.276 -3.24,-14.358 -5.133,-21.195 -9.849,-17.038 -19.532,-33.994 -25.788,-52.753 -5.715,-17.135 -8.12,-35.127 -13.953,-52.185 -6.301,-18.426 -19.537,-88.771 -12.162,-121.436 -21.671,-47.414 -33.721,-98.853 -32.526,-151.289 -3.755,-5.186 -15.414,-28.645 -16.67,-35.598 -5.927,-2.974 -36.615,-30.867 -47.405,-40.721 -36.189,-33.051 -51.608,-88.432 -58.967,-107.485 -13.589,-35.183 -29.038,-65.537 -25.041,-103.572 -7.522,-9.245 -16.355,-17.505 -20.47,-28.93 -1.289,-3.582 -11.467,-24.295 -12.902,-30.779 -0.413,-1.87 -6.107,-14.568 -9.739,-20.22 -6.827,-10.62 -8.301,-15.247 -7.848,-23.888 0.797,-15.209 8.247,-10.885 10.517,-17.621 5.449,-16.176 14.961,-14.796 14.961,-14.796 9.93,-10.779 19.339,-6.73 20.184,-7.788 4.274,-5.341 11.369,-10.367 13.079,-10.987 29.456,-10.658 14.456,56.642 15.006,64.08 0.924,12.451 8.247,22.418 12.448,33.851 3.07,8.363 4.311,17.371 6.832,25.891 16.302,55.091 84.738,137.471 104.195,165.174 13.71,19.518 30.289,43.11 40.089,67.817 13.756,7.457 26.63,20.803 35.778,35.859 15.953,7.221 27.816,19.68 36.055,37.323 5.781,12.381 61.514,84.191 73.036,104.27 11.736,20.451 22.609,41.306 35.107,61.327 0.605,0.968 1.272,1.885 1.886,2.846 2.707,-6.796 5.293,-13.643 7.996,-20.413 7.544,-18.898 17.006,-35.56 29.834,-51.398 11.012,-13.6 48.273,-73.264 57.637,-86.983 6.971,-10.213 14.463,-20.133 22.727,-29.347 1.752,-6.342 3.398,-12.705 4.21,-19.266 1.757,-14.164 -0.883,-27.592 -4.526,-41.198 -5.775,-21.57 -10.817,-41.774 -9.105,-64.332 2.216,-29.228 12.113,-60.656 27.862,-87.202 4.779,-16.979 13.32,-33.498 17.286,-50.378 3.604,-15.337 11.182,-79.342 8.926,-95.419 -2.056,-14.638 -20.489,-40.152 0.748,-48.78 8.496,-3.451 23.528,-2.316 32.473,-2.563 14.957,-0.41 26.244,3.895 41.204,3.694 10.47,-0.14 19.866,-1.227 29.424,-3.356 -0.007,-0.207 -0.024,-0.415 -0.032,-0.622 6.612,-1.545 35.866,-8.811 44.677,-8.831 8.851,-0.022 18.358,-0.534 27.649,-0.042 8.577,-0.492 16.618,-0.333 21.377,1.935 7.706,3.674 10.291,7.986 9.404,12.545 0.48,2.657 -0.076,5.563 -2.178,8.543 -1.807,2.561 -4.387,4.569 -7.38,6.197 -1.15,1.797 -2.571,3.376 -3.507,3.892 -2.599,1.433 -7.191,4.488 -10.664,5.354 -3.807,5.904 -10.593,6.228 -18.129,7.401 -6.443,1.005 -14.818,0.344 -25.502,3.617 -14.224,3.321 -38.507,9.87 -41.065,11.659 -14.191,9.925 -23.076,22.965 -31.478,36.532 0.044,1.94 1.381,39.028 2.489,55.566 2.459,36.71 1.574,72.085 -1.965,108.748 -2.368,24.524 -3.23,49.303 -7.163,73.649 -1.78,11.019 -3.979,22.864 -8.359,33.52 5.04,15.867 6.396,34.422 3.612,48.977 -2.603,13.608 -10.169,27.325 -18.859,39.75 -0.738,13.068 -1.863,26.115 -3.438,39.109 -2.939,24.248 -7.476,102.147 -34.464,137.925 14.379,10.963 -15.362,63.898 -25.472,87.815 -8.093,19.139 -8.375,42.884 -14.927,62.642 -6.358,19.173 -9.018,39.236 -13.34,58.905 -3.7,16.836 -10.434,31.931 -16.815,47.499 -4.37,50.875 -0.595,106.902 12.876,150.576 C -240.187,-617.265 -128.346,-687.64 0,-687.64 c 189.886,0 343.819,153.934 343.819,343.821 C 343.819,-153.934 189.886,0 0,0"
         style="fill:#000000;fill-opacity:1;fill-rule:nonzero;stroke:none"
         id="path3777"
         inkscape:connector-curvature="0" />
    </g>
    <g
       transform="matrix(0.00417114,-0.00525866,-0.00420109,-0.00310598,21.378914,204.61804)"
       id="g3875"
       inkscape:export-xdpi="96"
       inkscape:export-ydpi="96">
      <path
         inkscape:connector-curvature="0"
         id="path3877"
         style="fill:#000000;fill-opacity:1;fill-rule:nonzero;stroke:none"
         d="m 16213.9,2482.06 c -13.3,1.97 -35.8,4.37 -63.1,7.16 -27.3,3.27 -59.4,7.88 -91.9,12.44 -32.4,4.23 -65.3,10.72 -94.3,16.96 -29,6.39 -54.1,12.16 -71.2,19.03 -8.3,16.63 -22.1,37.72 -41.9,47.52 -19.2,9.61 -44.8,8.84 -64.2,6.82 -27.9,12.74 -58.3,24.17 -87.6,30.22 -29.5,6.1 -57.8,8.36 -82.1,0.2 -32.1,-10.86 -57,-26.96 -75.7,-44.21 -18.7,-17.49 -31.1,-36.47 -38,-52.32 -105.7,9.66 -273.6,33.25 -553.8,103.92 -140.6,35.47 -308.3,83.8 -517.1,144.29 -104.5,29.89 -219.3,62.61 -348.7,93.98 -129.4,30.89 -273.4,61.74 -438.3,76.92 -143.6,13.31 -295.8,14.95 -451.1,-8.4 -19.4,-3.03 -38.9,-6.11 -58.3,-9.13 -19.2,-3.27 -37.1,-7.36 -55.8,-11.05 -37.3,-7.12 -73.5,-16.19 -110.1,-25.18 -36.8,-8.74 -72.1,-19.65 -108.5,-29.5 -35.5,-10.91 -71.5,-21.72 -106.8,-33.39 -283.1,-93.41 -553.6,-216.17 -833.2,-331.14 -279,-114.4 -568.9,-223.76 -874.6,-271.09 -76.3,-12.44 -153.2,-18.3 -231.1,-22 -77.7,-1.92 -156.1,0.72 -235.2,8.74 -19.8,2.12 -39.5,5.43 -59.4,7.98 l -29.9,4.04 -29.8,5.81 c -20.1,4.08 -39.3,7.11 -60.5,11.82 -22.2,5.38 -44.5,10.81 -66.9,16.24 -22.3,5.38 -44.8,10.76 -67.4,16.19 -22.7,5.24 -45.4,10.67 -67.7,17.59 -45.1,12.87 -90.5,25.84 -136.4,39.01 -32.8,10.86 -65.58,21.76 -98.25,32.57 l -48.96,16.15 -48.62,17.97 c -32.39,11.96 -64.68,23.97 -96.92,35.89 -32.38,13.07 -64.67,26.14 -96.91,39.16 -32,12.59 -64.76,26.62 -97.34,40.5 -32.82,13.98 -65.58,27.87 -98.21,41.75 -33.29,14.37 -66.5,28.64 -99.6,42.86 -34.31,14.42 -68.47,28.78 -102.58,43.1 -33.49,14.46 -69.81,28.3 -105.03,42.19 -35.46,13.83 -70.29,27.91 -107.67,40.4 -36.86,12.69 -73.04,25.85 -110.13,37.86 -37.86,11.1 -75.62,22.15 -113.24,33.16 -152.12,40.02 -307.89,70.77 -459.96,81.24 -19.02,1.59 -38.01,3.22 -56.93,4.86 l -28.4,2.35 c -9.37,0.58 -18.69,0.53 -28.06,0.82 -37.33,0.72 -74.52,1.44 -111.57,2.16 -18.49,0.29 -36.99,0.58 -55.39,0.87 -18.31,-0.2 -36.28,-1.4 -54.35,-2.07 -36.08,-1.63 -71.97,-3.32 -107.72,-4.95 -17.87,-0.86 -35.69,-1.73 -53.47,-2.59 -18.12,-1.69 -36.23,-3.37 -54.25,-5.1 -18.06,-1.73 -36.03,-3.5 -54,-5.23 -17.87,-2.07 -35.61,-4.71 -53.38,-7.02 -17.68,-2.45 -35.36,-4.85 -53,-7.3 -17.63,-2.5 -34.93,-5.86 -52.32,-8.79 -34.74,-5.96 -69.33,-11.92 -103.06,-19.46 -272.19,-56.46 -514.97,-143.76 -733.58,-228.32 -218.62,-85.04 -416.28,-168.02 -601.5,-235.67 -185.18,-68.9 -358.19,-122.48 -520.83,-163.99 -325,-81.15 -607.99,-109.4 -831.51,-119.35 -121.02,-7.11 -247.34,-4.8 -377.7,0.39 -32.53,1.39 -65.28,1.58 -98.16,3.99 -32.91,2.54 -65.94,5.09 -99.07,7.68 -33.21,2.55 -66.52,5.14 -99.89,7.74 -33.44,2.3 -66.76,7.3 -100.28,10.81 -268.07,29.16 -539.07,75.24 -795.32,131.45 -512.98,111.57 -968.3,255.57 -1247.84,358.15 -21.08,7.88 -36.97,-26.04 -16.42,-36.85 266.72,-137.85 702.31,-339.31 1207.49,-519.87 504.74,-181.14 1081.52,-334.17 1616.86,-384.62 245.76,-22.92 569.79,-24.41 945.86,38.73 187.24,32.24 386.97,79.66 591.26,141.93 205.02,61.21 414.12,136.36 626.87,208.09 212.61,71.54 428.29,138.09 649.41,176.24 27.67,5.33 55.4,9.08 83.21,12.97 13.94,1.87 27.87,4.28 41.85,5.81 13.94,1.44 27.97,2.93 41.95,4.38 14.03,1.44 28.06,3.17 42.14,4.37 14.07,0.96 28.15,1.87 42.33,2.83 14.12,0.96 28.25,1.92 42.47,2.88 14.61,0.29 29.26,0.53 43.96,0.77 29.41,0.63 58.91,1.2 88.5,1.83 14.8,0.19 29.75,0.96 44.45,0.77 14.56,-0.63 29.16,-1.3 43.82,-1.97 29.26,-1.2 58.61,-2.36 88.12,-3.56 7.34,-0.38 14.79,-0.38 22.05,-1.01 l 21.71,-2.45 c 14.47,-1.58 28.98,-3.17 43.54,-4.75 116.99,-10.05 230.77,-35.56 346.94,-67.37 29.02,-8.88 58.14,-17.82 87.31,-26.81 29.4,-9.94 59.09,-21.33 88.78,-31.85 29.51,-10.04 60.16,-22.82 90.72,-35.17 30.6,-12.44 60.88,-24.12 92.87,-38.25 31.67,-13.64 63.47,-27.29 95.38,-40.98 32.86,-14.37 65.87,-28.78 98.93,-43.29 33.92,-14.61 67.89,-29.26 102,-43.96 34.35,-14.75 68.61,-29.6 104.74,-43.97 35.65,-14.46 71.45,-28.97 107.29,-43.53 36.85,-13.69 73.8,-27.43 110.8,-41.17 l 55.78,-20.47 56.94,-18.79 c 38.05,-12.44 76.2,-24.98 114.44,-37.48 53.67,-15.08 106.86,-30.02 159.45,-44.82 26.3,-7.74 52.7,-13.89 79.1,-19.85 26.3,-6 52.5,-12.06 78.5,-18.02 26.1,-5.95 52,-11.81 77.9,-17.72 26.8,-5.53 56.1,-10.24 83.9,-15.23 14,-2.46 28.1,-4.86 42,-7.31 14.1,-1.73 28.2,-3.46 42.2,-5.19 28.1,-3.22 56,-7.01 83.9,-9.46 111.5,-9.27 221.1,-10.24 327.4,-4.37 106,7.49 209.3,19.41 307.7,38.77 98.4,18.93 193.3,41.9 283.5,69.19 90.7,26.38 176.7,56.89 259.9,88.16 165.6,63.52 318.2,132.66 460.8,201.42 285.4,137.65 536.5,271.46 775.5,367.94 29.8,12.11 59.3,23.11 88.8,34.4 29.3,9.95 58.6,21.33 87.4,30.08 28.9,9.13 57.7,18.5 86.1,25.75 14.1,3.7 28.7,8.17 42.3,11.34 13.5,2.98 26.9,5.96 40.3,8.94 107.4,23.59 219.3,29.74 333.8,25.37 131,-4.76 257.8,-23.93 377.1,-45.41 119.4,-21.71 231.7,-46.46 336.3,-69.62 209.2,-47.03 388.4,-86.39 538.4,-114.3 150.4,-28.35 272.4,-45.98 370.5,-58.81 24.6,-3.17 47.6,-6.2 69.3,-9.03 21.7,-2.45 42,-4.76 61.1,-6.92 19,-2.31 36.8,-4.47 53.4,-6.49 16.6,-1.82 32,-3.51 46.4,-5.09 4,-16.91 13.4,-38.1 30.5,-59.15 17,-21.23 41.9,-41.99 76.9,-57.17 61.1,-27.73 158.3,-5.48 227.6,20.61 14.6,-4.81 42.2,-4.37 55.6,1.06 40.3,16.43 49.5,42.95 49.5,42.95 21.4,6.58 49.7,13.5 81,20.37 15.6,3.32 31.9,6.78 48.6,10.29 16.5,3.84 33.3,7.68 49.8,11.48 33,7.64 65,14.12 91.9,20.9 26.9,6.87 48.8,12.64 61.9,16.62 61.1,18.4 57.4,71.78 43.1,154.14 -2,83.36 -9.5,136.4 -68.1,145.05" />
    </g>
    <path
       style="fill:#ffffff;stroke-width:0.09082764"
       d="m 108.231,162.61275 c -0.12486,-0.0383 -0.34902,-0.13326 -0.49814,-0.21124 -1.04399,-0.54596 -1.26766,-2.03544 -0.43669,-2.90797 l 0.23238,-0.244 -0.21177,-0.30251 c -0.15871,-0.22674 -1.59826,-2.20558 -1.76896,-2.43169 -0.0141,-0.0187 -0.19771,0.035 -0.40782,0.11955 -0.47352,0.19055 -1.39652,0.19981 -1.82834,0.0183 -0.45098,-0.18951 -1.08821,-0.80546 -1.2832,-1.24034 -0.0903,-0.20148 -0.21042,-0.36631 -0.26684,-0.36631 -0.11472,0 -2.764978,0.42763 -3.151388,0.50849 -0.19083,0.0399 -0.26826,0.12832 -0.33853,0.38647 -0.41007,1.50643 -2.187848,1.97042 -3.206192,0.8368 -0.552905,-0.61549 -0.646242,-1.32979 -0.272362,-2.08435 0.391126,-0.78937 1.210548,-1.18711 2.055541,-0.99777 0.631672,0.14155 0.954873,0.42486 1.414043,1.23948 0.0523,0.0927 0.42261,0.0571 1.791578,-0.1722 l 1.72571,-0.28906 0.0542,-0.39737 c 0.16283,-1.19478 1.16712,-2.06973 2.38529,-2.07806 l 0.56164,-0.003 0.55133,-1.61311 0.55133,-1.61311 -0.44729,-0.43633 c -0.78572,-0.76647 -0.85413,-1.76092 -0.17468,-2.5392 0.79178,-0.90693 2.06843,-0.90693 2.8602,0 0.27152,0.31101 0.47085,0.81563 0.47085,1.19198 0,0.92908 -0.90293,1.86728 -1.79707,1.86728 -0.25449,0 -0.37447,0.0455 -0.42018,0.15941 -0.1954,0.48686 -1.04138,3.05512 -1.0367,3.14728 0.003,0.06 0.17248,0.23202 0.37652,0.38232 0.20867,0.15369 0.47374,0.47254 0.60582,0.7287 0.12914,0.25048 0.2437,0.4712 0.25457,0.49047 0.0112,0.0193 0.77469,-0.0809 1.6974,-0.22277 l 1.67764,-0.25782 0.0587,-0.3148 c 0.0323,-0.17315 0.1931,-0.4644 0.35732,-0.6472 0.29762,-0.33133 0.29825,-0.33399 0.19077,-0.82072 -0.0963,-0.43589 -0.14062,-0.49942 -0.41333,-0.59177 -1.00251,-0.33947 -0.79135,-1.77984 0.26092,-1.77984 0.48152,0 0.9057,0.38278 0.9057,0.81729 0,0.30639 -0.20779,0.78566 -0.3632,0.83776 -0.0648,0.0217 -0.056,0.20617 0.0276,0.576 0.12102,0.53591 0.12843,0.54515 0.49527,0.61811 0.42302,0.0841 0.9024,0.55565 0.98446,0.96831 0.0447,0.22476 0.11485,0.26589 0.69068,0.40487 l 0.64091,0.1547 0.23392,-0.21781 c 0.30975,-0.2884 0.6065,-0.35073 0.96091,-0.20181 0.37408,0.15719 0.58626,0.46628 0.58626,0.854 0,0.40272 -0.49465,0.92719 -0.87399,0.9267 -0.39455,-5.1e-4 -0.8278,-0.31026 -0.91672,-0.65538 -0.0731,-0.28374 -0.10852,-0.30476 -0.72451,-0.43015 l -0.64766,-0.13185 -0.19266,0.24633 c -0.30088,0.3847 -0.68718,0.54524 -1.17275,0.48741 l -0.42028,-0.05 -0.27563,0.56304 c -0.26137,0.53393 -0.26862,0.5779 -0.14012,0.84991 0.16256,0.34411 0.10089,0.6567 -0.1985,1.0068 -0.17867,0.20889 -0.29147,0.25482 -0.62605,0.25482 -0.72977,0 -1.15963,-0.68018 -0.83226,-1.31687 0.1649,-0.32071 0.67975,-0.59208 0.95599,-0.50391 0.13973,0.0446 0.22764,-0.0588 0.48243,-0.56769 0.25631,-0.51185 0.29209,-0.64901 0.20174,-0.77329 -0.10157,-0.13961 -0.24149,-0.12987 -1.84763,0.12876 l -1.73777,0.27983 v 0.29272 c 0,0.37621 -0.15489,0.82454 -0.43094,1.24734 -0.14166,0.217 -0.19217,0.38042 -0.14308,0.46299 0.0417,0.0702 0.49866,0.70484 1.0154,1.41031 l 0.9395,1.28269 0.48351,-0.0502 c 0.64183,-0.0666 1.3848,0.2791 1.73123,0.80558 0.46942,0.7134 0.39665,1.70016 -0.17104,2.31955 -0.49081,0.53552 -1.20531,0.77036 -1.79492,0.59 z m 1.17799,-0.72396 c 1.01284,-0.74429 0.5975,-2.31207 -0.64628,-2.43949 -1.44203,-0.14775 -1.99821,1.82474 -0.70557,2.50224 0.45989,0.24105 0.97072,0.21732 1.35185,-0.0627 z m -12.154938,-5.2804 c 0.156258,-0.11185 0.342988,-0.37362 0.429947,-0.60261 0.529813,-1.39524 -1.23356,-2.48818 -2.209971,-1.36976 -0.823443,0.9432 -0.155448,2.29913 1.085164,2.20272 0.24004,-0.0186 0.536476,-0.11693 0.69486,-0.23035 z m 12.442158,-0.16408 c 0.24016,-0.21857 0.20823,-0.54568 -0.0713,-0.72983 -0.21224,-0.13986 -0.26167,-0.14212 -0.4755,-0.0219 -0.29017,0.16327 -0.3539,0.49149 -0.1413,0.72775 0.19311,0.2146 0.46802,0.22416 0.68803,0.0239 z m -4.72513,-0.32323 c 0.31924,-0.11862 0.70964,-0.51188 0.92357,-0.93036 0.25227,-0.49345 0.20059,-1.35699 -0.1083,-1.81043 -0.84082,-1.23411 -2.66462,-1.09274 -3.27281,0.25367 -0.70444,1.55949 0.8152,3.09739 2.4576,2.48712 z m 10.0351,-1.8214 c 0.25489,-0.25634 0.0119,-0.89266 -0.34089,-0.89266 -0.4038,0 -0.63277,0.54152 -0.36578,0.86505 0.13536,0.16402 0.55475,0.1804 0.70667,0.0275 z m -3.3823,-0.40271 c 0.19056,-0.0736 0.41162,-0.50768 0.41162,-0.80837 0,-0.36002 -0.37537,-0.6841 -0.78836,-0.68063 -0.37547,0.003 -0.57439,0.11762 -0.73652,0.42378 -0.16218,0.30623 -0.12701,0.53543 0.1291,0.84155 0.23501,0.28089 0.61319,0.36683 0.98416,0.22367 z m -0.87446,-3.51401 c 0.19018,-0.19127 0.12911,-0.60174 -0.11331,-0.76148 -0.45365,-0.29894 -0.93723,0.1972 -0.63873,0.65536 0.15389,0.23622 0.56498,0.29424 0.75204,0.10609 z m -3.33292,-2.28173 c 0.58517,-0.40171 0.77914,-1.09788 0.47531,-1.70605 -0.4871,-0.97502 -1.91272,-0.97502 -2.39981,0 -0.3048,0.61012 -0.11178,1.31601 0.4661,1.70424 0.41657,0.27988 1.0522,0.28067 1.4584,0.002 z"
       id="path7112"
       inkscape:connector-curvature="0" />
    <path
       style="fill:#ffffff;stroke-width:0.54054052"
       d=""
       id="path7114"
       inkscape:connector-curvature="0"
       transform="scale(0.26458333)" />
    <path
       style="fill:#ffffff;stroke-width:0.54054052"
       d=""
       id="path7116"
       inkscape:connector-curvature="0"
       transform="scale(0.26458333)" />
    <path
       style="fill:#ffffff;stroke-width:0.54054052"
       d=""
       id="path7118"
       inkscape:connector-curvature="0"
       transform="scale(0.26458333)" />
    <path
       style="fill:#ffffff;stroke-width:0.08963912"
       d="m 91.089128,172.18445 c -0.90289,-0.40014 -1.36107,-1.54477 -0.98176,-2.45258 0.36518,-0.87399 1.34848,-1.32287 2.34088,-1.06862 0.27945,0.0716 0.29228,0.0602 0.90544,-0.80675 0.94877,-1.34139 0.89733,-1.19448 0.57979,-1.65601 -1.06967,-1.55472 -0.49324,-3.65634 1.22096,-4.45147 0.73448,-0.34068 1.7243,-0.33497 2.47834,0.0143 0.91271,0.42277 1.74796,1.53948 1.74796,2.33699 0,0.17188 0.0597,0.21888 0.33615,0.26457 0.758542,0.12538 0.859652,0.0917 1.039862,-0.34648 0.19958,-0.48534 0.81082,-1.04839 1.29585,-1.19371 0.84684,-0.25372 1.57702,-0.0685 2.22725,0.56499 0.69503,0.67713 0.85522,1.54776 0.44635,2.4258 -0.36448,0.78272 -1.05908,1.22334 -1.93681,1.2286 -1.08145,0.007 -1.99822,-0.76052 -2.20101,-1.84149 l -0.0623,-0.33198 h -0.572682 c -0.48562,0 -0.57269,0.0238 -0.57275,0.15687 -9e-5,0.29164 -0.51202,1.23033 -0.86214,1.58099 -0.19136,0.19164 -0.56977,0.45383 -0.84093,0.58265 -0.41844,0.19878 -0.61505,0.23416 -1.29977,0.23385 -0.70558,-3.3e-4 -0.86733,-0.0315 -1.28976,-0.24904 -0.26566,-0.13678 -0.49517,-0.23653 -0.51003,-0.22168 -0.0148,0.0149 -0.35162,0.48736 -0.74838,1.05 -0.63753,0.90411 -0.70645,1.03948 -0.59298,1.16486 0.22942,0.25351 0.49281,0.93718 0.49482,1.28442 0.004,0.67255 -0.43299,1.34681 -1.09253,1.68606 -0.39012,0.20067 -1.14876,0.22263 -1.54984,0.0449 z m 1.55294,-0.56065 c 0.38484,-0.27927 0.67196,-0.93937 0.59828,-1.37545 -0.069,-0.40843 -0.38712,-0.83648 -0.76805,-1.03347 -0.34927,-0.18061 -0.96549,-0.16445 -1.33752,0.035 -0.34814,0.18671 -0.71795,0.79789 -0.71795,1.18654 0,0.53857 0.34769,1.07114 0.85157,1.30439 0.35527,0.16446 1.06962,0.10358 1.37367,-0.11708 z m 4.91517,-4.90003 c 0.92164,-0.46703 1.43691,-1.39138 1.35368,-2.42833 -0.0523,-0.65105 -0.28332,-1.13886 -0.75512,-1.59416 -1.48588,-1.43392 -3.9437,-0.61597 -4.28421,1.42576 -0.13329,0.79918 0.29236,1.83032 0.97825,2.36984 0.7151,0.5625 1.85637,0.65814 2.7074,0.22689 z m 5.885292,-0.27169 c 0.85598,-0.35765 1.26502,-1.40798 0.87915,-2.25748 -0.57894,-1.27452 -2.43922,-1.34467 -3.06623,-0.11562 -0.27435,0.53775 -0.21615,1.36066 0.12813,1.81204 0.4695,0.61554 1.35261,0.85619 2.05895,0.56106 z"
       id="path7120"
       inkscape:connector-curvature="0" />
    <g
       id="g7128"
       transform="matrix(0.75534508,0,0,0.75534508,-3.3693686,26.26997)">
      <path
         transform="scale(0.26458333)"
         inkscape:connector-curvature="0"
         id="path7122"
         d="m 564.62244,776.47352 c -2.95178,-1.35758 -4.23325,-3.28089 -4.48257,-6.72771 -0.20174,-2.78906 -0.0672,-3.31549 1.24665,-4.87688 1.72017,-2.04432 3.98717,-3.33312 5.86293,-3.33312 1.1759,0 1.49286,-0.48357 2.74589,-4.18919 1.33449,-3.94654 1.36105,-4.22049 0.4586,-4.72973 -2.16399,-1.22109 -4.35975,-4.08559 -4.96046,-6.47121 -0.92991,-3.69299 -0.025,-6.45503 3.10975,-9.49244 l 2.52871,-2.45013 -1.06088,-4.44176 -1.06089,-4.44175 -3.00468,-0.005 c -11.92128,-0.021 -18.05208,-14.32361 -9.71392,-22.66177 4.09234,-4.09235 10.36104,-5.14237 15.39747,-2.57912 4.81849,2.45233 7.22535,6.42754 7.24585,11.9674 0.015,4.05446 -1.41618,7.13529 -4.628,9.96245 -1.31293,1.15569 -2.38716,2.4062 -2.38716,2.7789 0,0.3727 0.52465,2.59204 1.16589,4.93185 0.97996,3.57579 1.34631,4.25611 2.29729,4.26609 2.73823,0.0287 7.70602,3.4957 8.52364,5.94857 0.14072,0.42216 1.76514,0.34803 5.59224,-0.2552 9.21454,-1.45239 8.36511,-0.96554 8.37876,-4.80225 0.007,-2.05844 0.39153,-4.17123 1.00352,-5.51851 1.33214,-2.93267 5.40066,-6.42428 8.49539,-7.29075 l 2.49462,-0.69845 -0.34502,-4.64359 c -0.62185,-8.36925 -0.65385,-8.46788 -2.97336,-9.16282 -2.85112,-0.85422 -4.86286,-2.57543 -6.04036,-5.16801 -1.33754,-2.94498 -1.27904,-5.52685 0.19118,-8.4371 3.58346,-7.09338 13.44356,-7.09338 17.02702,0 1.42582,2.82236 1.53972,5.22265 0.37961,7.99919 -1.05102,2.51545 -2.59001,4.17038 -4.68532,5.03828 l -1.63136,0.67573 0.35392,5.44882 c 0.52871,8.1399 0.53337,8.15268 3.37196,9.23675 6.74278,2.57509 10.26175,9.69565 8.19713,16.58674 -0.83154,2.77542 -4.43109,6.82016 -7.18123,8.06939 -5.21213,2.36756 -12.20874,0.71857 -16.03765,-3.77984 l -1.82111,-2.13954 -7.02257,1.18537 c -6.09024,1.02801 -7.04389,1.32688 -7.18321,2.25118 -0.41551,2.75684 -0.7955,3.61597 -2.41521,5.46072 -1.83961,2.0952 -4.39032,3.4429 -6.51614,3.4429 -1.13048,0 -1.44227,0.52076 -2.67,4.45946 l -1.39006,4.45946 1.23525,1.35135 c 2.59399,2.8378 3.19364,6.18018 1.64577,9.17342 -1.72055,3.32718 -6.49536,5.09342 -9.73788,3.60213 z m 6.43843,-4.16837 c 1.60407,-1.90633 1.73774,-3.14173 0.58179,-5.37708 -2.04152,-3.94787 -8.91212,-2.36581 -8.91212,2.05216 0,1.52929 1.34276,4.24676 2.28593,4.62624 0.37788,0.15203 1.57759,0.29563 2.66602,0.3191 1.5748,0.034 2.26479,-0.29699 3.37838,-1.62042 z m 7.71794,-22.94883 c 1.42848,-0.93598 2.87065,-3.79678 2.87065,-5.69443 0,-3.41425 -3.16863,-6.4504 -6.73186,-6.4504 -4.36268,0 -7.12318,3.08221 -6.63551,7.4088 0.57305,5.08405 6.13534,7.59371 10.49672,4.73603 z m 37.96257,-5.83586 c 7.77287,-5.14384 5.20847,-17.01668 -4.10074,-18.98592 -5.68785,-1.20319 -12.0255,4.11834 -12.06039,10.12674 -0.0482,8.30007 9.27943,13.41327 16.16113,8.85918 z m -45.7682,-22.60895 c 5.47508,-2.7523 6.83943,-10.73843 2.67922,-15.68256 -4.37361,-5.19774 -12.59436,-4.66708 -16.58129,1.07034 -1.3397,1.9279 -1.61868,2.86273 -1.61311,5.4054 0.0183,8.35089 7.90638,13.03174 15.51518,9.20682 z m 41.88497,-17.0151 c 1.88358,-1.17506 2.99279,-3.27432 2.99279,-5.66409 0,-2.6576 -1.38294,-4.71363 -4.06952,-6.0502 -4.85122,-2.41348 -10.49272,2.53057 -9.01099,7.89697 1.20071,4.34863 6.20222,6.24126 10.08772,3.81732 z"
         style="fill:#ffffff;stroke-width:0.54054052" />
      <path
         transform="scale(0.26458333)"
         inkscape:connector-curvature="0"
         id="path7124"
         d="m 531.37919,765.92762 c -10.25087,-3.37536 -14.32341,-14.30355 -8.56833,-22.99213 3.25778,-4.91836 9.66937,-7.57749 15.25601,-6.32725 5.17492,1.15809 7.70287,3.26257 11.42043,9.50732 0.50364,0.84601 1.01646,0.83063 7.51157,-0.22521 3.83407,-0.62326 7.05179,-1.05244 7.15051,-0.95372 0.0987,0.0987 0.24553,0.76304 0.32627,1.47627 0.14316,1.2648 -0.0283,1.32269 -6.94819,2.34563 l -7.09497,1.04883 -0.29074,2.81703 c -0.77431,7.50229 -6.65618,13.13966 -14.15206,13.56379 -1.79253,0.10142 -3.86725,-0.0158 -4.6105,-0.26056 z m 8.91892,-3.71896 c 2.30903,-1.13381 4.52829,-3.32442 5.72518,-5.65131 1.34033,-2.60574 1.35137,-7.50859 0.0235,-10.43158 -3.80678,-8.37962 -15.80447,-9.11905 -20.98336,-1.29322 -1.71734,2.59508 -2.28713,7.34992 -1.25539,10.47613 2.16414,6.55739 10.2756,9.95149 16.49009,6.89998 z"
         style="fill:#ffffff;stroke-width:0.54054052" />
    </g>
    <flowRoot
       xml:space="preserve"
       id="flowRoot7149"
       style="font-style:normal;font-variant:normal;font-weight:normal;font-stretch:normal;font-size:40.0005455px;line-height:1.25;font-family:Trattatello;-inkscape-font-specification:'Trattatello, Normal';font-variant-ligatures:normal;font-variant-caps:normal;font-variant-numeric:normal;font-feature-settings:normal;text-align:start;letter-spacing:0px;word-spacing:0px;writing-mode:lr-tb;text-anchor:start;fill:#000000;fill-opacity:1;stroke:none"
       transform="matrix(0.51792363,0,0,0.51792363,-63.64949,-53.160344)"
       inkscape:export-xdpi="300"
       inkscape:export-ydpi="300"><flowRegion
         id="flowRegion7151"
         style="font-style:normal;font-variant:normal;font-weight:normal;font-stretch:normal;font-size:40.0005455px;font-family:Trattatello;-inkscape-font-specification:'Trattatello, Normal';font-variant-ligatures:normal;font-variant-caps:normal;font-variant-numeric:normal;font-feature-settings:normal;text-align:start;writing-mode:lr-tb;text-anchor:start"><rect
           id="rect7153"
           width="329.33334"
           height="112"
           x="298.66666"
           y="313.18634"
           style="font-style:normal;font-variant:normal;font-weight:normal;font-stretch:normal;font-size:40.0005455px;font-family:Trattatello;-inkscape-font-specification:'Trattatello, Normal';font-variant-ligatures:normal;font-variant-caps:normal;font-variant-numeric:normal;font-feature-settings:normal;text-align:start;writing-mode:lr-tb;text-anchor:start" /></flowRegion><flowPara
         id="flowPara7155">pyMARS</flowPara></flowRoot>  </g>
</svg>
