<?xml version="1.0" encoding="utf-8" standalone="no"?>
<!DOCTYPE svg PUBLIC "-//W3C//DTD SVG 1.1//EN"
  "http://www.w3.org/Graphics/SVG/1.1/DTD/svg11.dtd">
<svg xmlns:xlink="http://www.w3.org/1999/xlink" width="460.8pt" height="302.4pt" viewBox="0 0 460.8 302.4" xmlns="http://www.w3.org/2000/svg" version="1.1">
 <metadata>
  <rdf:RDF xmlns:dc="http://purl.org/dc/elements/1.1/" xmlns:cc="http://creativecommons.org/ns#" xmlns:rdf="http://www.w3.org/1999/02/22-rdf-syntax-ns#">
   <cc:Work>
    <dc:type rdf:resource="http://purl.org/dc/dcmitype/StillImage"/>
    <dc:date>2026-06-28T18:12:13.853881</dc:date>
    <dc:format>image/svg+xml</dc:format>
    <dc:creator>
     <cc:Agent>
      <dc:title>Matplotlib v3.11.0, https://matplotlib.org/</dc:title>
     </cc:Agent>
    </dc:creator>
   </cc:Work>
  </rdf:RDF>
 </metadata>
 <defs>
  <style type="text/css">*{stroke-linejoin: round; stroke-linecap: butt}</style>
 </defs>
 <g id="figure_1">
  <g id="patch_1">
   <path d="M 0 302.4
L 460.8 302.4
L 460.8 0
L 0 0
z
" style="fill: #ffffff"/>
  </g>
  <g id="axes_1">
   <g id="patch_2">
    <path d="M 58.042344 258.515312
L 450 258.515312
L 450 10.8
L 58.042344 10.8
z
" style="fill: #ffffff"/>
   </g>
   <g id="matplotlib.axis_1">
    <g id="xtick_1">
     <g id="line2d_1">
      <defs>
       <path id="m71bfafd7be" d="M 0 0
L 0 3.5
" style="stroke: #000000; stroke-width: 0.8"/>
      </defs>
      <g>
       <use xlink:href="#m71bfafd7be" x="75.858601" y="258.515312" style="stroke: #000000; stroke-width: 0.8"/>
      </g>
     </g>
     <g id="text_1">
      <!-- $\mathdefault{10^{-6}}$ -->
      <g transform="translate(64.108601 274.915313) scale(0.1 -0.1)">
       <defs>
        <path id="DejaVuSans-14" d="M 794 531
L 1825 531
L 1825 4091
L 703 3866
L 703 4441
L 1819 4666
L 2450 4666
L 2450 531
L 3481 531
L 3481 0
L 794 0
L 794 531
z
" transform="scale(0.015625)"/>
        <path id="DejaVuSans-13" d="M 2034 4250
Q 1547 4250 1301 3770
Q 1056 3291 1056 2328
Q 1056 1369 1301 889
Q 1547 409 2034 409
Q 2525 409 2770 889
Q 3016 1369 3016 2328
Q 3016 3291 2770 3770
Q 2525 4250 2034 4250
z
M 2034 4750
Q 2819 4750 3233 4129
Q 3647 3509 3647 2328
Q 3647 1150 3233 529
Q 2819 -91 2034 -91
Q 1250 -91 836 529
Q 422 1150 422 2328
Q 422 3509 836 4129
Q 1250 4750 2034 4750
z
" transform="scale(0.015625)"/>
        <path id="DejaVuSans-c9c" d="M 678 2272
L 4684 2272
L 4684 1741
L 678 1741
L 678 2272
z
" transform="scale(0.015625)"/>
        <path id="DejaVuSans-19" d="M 2113 2584
Q 1688 2584 1439 2293
Q 1191 2003 1191 1497
Q 1191 994 1439 701
Q 1688 409 2113 409
Q 2538 409 2786 701
Q 3034 994 3034 1497
Q 3034 2003 2786 2293
Q 2538 2584 2113 2584
z
M 3366 4563
L 3366 3988
Q 3128 4100 2886 4159
Q 2644 4219 2406 4219
Q 1781 4219 1451 3797
Q 1122 3375 1075 2522
Q 1259 2794 1537 2939
Q 1816 3084 2150 3084
Q 2853 3084 3261 2657
Q 3669 2231 3669 1497
Q 3669 778 3244 343
Q 2819 -91 2113 -91
Q 1303 -91 875 529
Q 447 1150 447 2328
Q 447 3434 972 4092
Q 1497 4750 2381 4750
Q 2619 4750 2861 4703
Q 3103 4656 3366 4563
z
" transform="scale(0.015625)"/>
       </defs>
       <use xlink:href="#DejaVuSans-14" transform="translate(0 0.746875)"/>
       <use xlink:href="#DejaVuSans-13" transform="translate(63.623047 0.746875)"/>
       <use xlink:href="#DejaVuSans-c9c" transform="translate(128.203125 42.046875) scale(0.7)"/>
       <use xlink:href="#DejaVuSans-19" transform="translate(186.855469 42.046875) scale(0.7)"/>
      </g>
     </g>
    </g>
    <g id="xtick_2">
     <g id="line2d_2">
      <g>
       <use xlink:href="#m71bfafd7be" x="135.246125" y="258.515312" style="stroke: #000000; stroke-width: 0.8"/>
      </g>
     </g>
     <g id="text_2">
      <!-- $\mathdefault{10^{-5}}$ -->
      <g transform="translate(123.496125 274.815313) scale(0.1 -0.1)">
       <defs>
        <path id="DejaVuSans-18" d="M 691 4666
L 3169 4666
L 3169 4134
L 1269 4134
L 1269 2991
Q 1406 3038 1543 3061
Q 1681 3084 1819 3084
Q 2600 3084 3056 2656
Q 3513 2228 3513 1497
Q 3513 744 3044 326
Q 2575 -91 1722 -91
Q 1428 -91 1123 -41
Q 819 9 494 109
L 494 744
Q 775 591 1075 516
Q 1375 441 1709 441
Q 2250 441 2565 725
Q 2881 1009 2881 1497
Q 2881 1984 2565 2268
Q 2250 2553 1709 2553
Q 1456 2553 1204 2497
Q 953 2441 691 2322
L 691 4666
z
" transform="scale(0.015625)"/>
       </defs>
       <use xlink:href="#DejaVuSans-14" transform="translate(0 0.665625)"/>
       <use xlink:href="#DejaVuSans-13" transform="translate(63.623047 0.665625)"/>
       <use xlink:href="#DejaVuSans-c9c" transform="translate(128.203125 41.965625) scale(0.7)"/>
       <use xlink:href="#DejaVuSans-18" transform="translate(186.855469 41.965625) scale(0.7)"/>
      </g>
     </g>
    </g>
    <g id="xtick_3">
     <g id="line2d_3">
      <g>
       <use xlink:href="#m71bfafd7be" x="194.633648" y="258.515312" style="stroke: #000000; stroke-width: 0.8"/>
      </g>
     </g>
     <g id="text_3">
      <!-- $\mathdefault{10^{-4}}$ -->
      <g transform="translate(182.883648 274.815313) scale(0.1 -0.1)">
       <defs>
        <path id="DejaVuSans-17" d="M 2419 4116
L 825 1625
L 2419 1625
L 2419 4116
z
M 2253 4666
L 3047 4666
L 3047 1625
L 3713 1625
L 3713 1100
L 3047 1100
L 3047 0
L 2419 0
L 2419 1100
L 313 1100
L 313 1709
L 2253 4666
z
" transform="scale(0.015625)"/>
       </defs>
       <use xlink:href="#DejaVuSans-14" transform="translate(0 0.665625)"/>
       <use xlink:href="#DejaVuSans-13" transform="translate(63.623047 0.665625)"/>
       <use xlink:href="#DejaVuSans-c9c" transform="translate(128.203125 41.965625) scale(0.7)"/>
       <use xlink:href="#DejaVuSans-17" transform="translate(186.855469 41.965625) scale(0.7)"/>
      </g>
     </g>
    </g>
    <g id="xtick_4">
     <g id="line2d_4">
      <g>
       <use xlink:href="#m71bfafd7be" x="254.021172" y="258.515312" style="stroke: #000000; stroke-width: 0.8"/>
      </g>
     </g>
     <g id="text_4">
      <!-- $\mathdefault{10^{-3}}$ -->
      <g transform="translate(242.271172 274.915313) scale(0.1 -0.1)">
       <defs>
        <path id="DejaVuSans-16" d="M 2597 2516
Q 3050 2419 3304 2112
Q 3559 1806 3559 1356
Q 3559 666 3084 287
Q 2609 -91 1734 -91
Q 1441 -91 1130 -33
Q 819 25 488 141
L 488 750
Q 750 597 1062 519
Q 1375 441 1716 441
Q 2309 441 2620 675
Q 2931 909 2931 1356
Q 2931 1769 2642 2001
Q 2353 2234 1838 2234
L 1294 2234
L 1294 2753
L 1863 2753
Q 2328 2753 2575 2939
Q 2822 3125 2822 3475
Q 2822 3834 2567 4026
Q 2313 4219 1838 4219
Q 1578 4219 1281 4162
Q 984 4106 628 3988
L 628 4550
Q 988 4650 1302 4700
Q 1616 4750 1894 4750
Q 2613 4750 3031 4423
Q 3450 4097 3450 3541
Q 3450 3153 3228 2886
Q 3006 2619 2597 2516
z
" transform="scale(0.015625)"/>
       </defs>
       <use xlink:href="#DejaVuSans-14" transform="translate(0 0.746875)"/>
       <use xlink:href="#DejaVuSans-13" transform="translate(63.623047 0.746875)"/>
       <use xlink:href="#DejaVuSans-c9c" transform="translate(128.203125 42.046875) scale(0.7)"/>
       <use xlink:href="#DejaVuSans-16" transform="translate(186.855469 42.046875) scale(0.7)"/>
      </g>
     </g>
    </g>
    <g id="xtick_5">
     <g id="line2d_5">
      <g>
       <use xlink:href="#m71bfafd7be" x="313.408696" y="258.515312" style="stroke: #000000; stroke-width: 0.8"/>
      </g>
     </g>
     <g id="text_5">
      <!-- $\mathdefault{10^{-2}}$ -->
      <g transform="translate(301.658696 274.915313) scale(0.1 -0.1)">
       <defs>
        <path id="DejaVuSans-15" d="M 1228 531
L 3431 531
L 3431 0
L 469 0
L 469 531
Q 828 903 1448 1529
Q 2069 2156 2228 2338
Q 2531 2678 2651 2914
Q 2772 3150 2772 3378
Q 2772 3750 2511 3984
Q 2250 4219 1831 4219
Q 1534 4219 1204 4116
Q 875 4013 500 3803
L 500 4441
Q 881 4594 1212 4672
Q 1544 4750 1819 4750
Q 2544 4750 2975 4387
Q 3406 4025 3406 3419
Q 3406 3131 3298 2873
Q 3191 2616 2906 2266
Q 2828 2175 2409 1742
Q 1991 1309 1228 531
z
" transform="scale(0.015625)"/>
       </defs>
       <use xlink:href="#DejaVuSans-14" transform="translate(0 0.746875)"/>
       <use xlink:href="#DejaVuSans-13" transform="translate(63.623047 0.746875)"/>
       <use xlink:href="#DejaVuSans-c9c" transform="translate(128.203125 42.046875) scale(0.7)"/>
       <use xlink:href="#DejaVuSans-15" transform="translate(186.855469 42.046875) scale(0.7)"/>
      </g>
     </g>
    </g>
    <g id="xtick_6">
     <g id="line2d_6">
      <g>
       <use xlink:href="#m71bfafd7be" x="372.796219" y="258.515312" style="stroke: #000000; stroke-width: 0.8"/>
      </g>
     </g>
     <g id="text_6">
      <!-- $\mathdefault{10^{-1}}$ -->
      <g transform="translate(361.046219 274.815313) scale(0.1 -0.1)">
       <use xlink:href="#DejaVuSans-14" transform="translate(0 0.665625)"/>
       <use xlink:href="#DejaVuSans-13" transform="translate(63.623047 0.665625)"/>
       <use xlink:href="#DejaVuSans-c9c" transform="translate(128.203125 41.965625) scale(0.7)"/>
       <use xlink:href="#DejaVuSans-14" transform="translate(186.855469 41.965625) scale(0.7)"/>
      </g>
     </g>
    </g>
    <g id="xtick_7">
     <g id="line2d_7">
      <g>
       <use xlink:href="#m71bfafd7be" x="432.183743" y="258.515312" style="stroke: #000000; stroke-width: 0.8"/>
      </g>
     </g>
     <g id="text_7">
      <!-- $\mathdefault{10^{0}}$ -->
      <g transform="translate(423.383743 274.915313) scale(0.1 -0.1)">
       <use xlink:href="#DejaVuSans-14" transform="translate(0 0.746875)"/>
       <use xlink:href="#DejaVuSans-13" transform="translate(63.623047 0.746875)"/>
       <use xlink:href="#DejaVuSans-13" transform="translate(128.203125 42.046875) scale(0.7)"/>
      </g>
     </g>
    </g>
    <g id="xtick_8">
     <g id="line2d_8">
      <defs>
       <path id="m5aafcfcec0" d="M 0 0
L 0 2
" style="stroke: #000000; stroke-width: 0.6"/>
      </defs>
      <g>
       <use xlink:href="#m5aafcfcec0" x="62.683553" y="258.515312" style="stroke: #000000; stroke-width: 0.6"/>
      </g>
     </g>
    </g>
    <g id="xtick_9">
     <g id="line2d_9">
      <g>
       <use xlink:href="#m5aafcfcec0" x="66.659357" y="258.515312" style="stroke: #000000; stroke-width: 0.6"/>
      </g>
     </g>
    </g>
    <g id="xtick_10">
     <g id="line2d_10">
      <g>
       <use xlink:href="#m5aafcfcec0" x="70.103355" y="258.515312" style="stroke: #000000; stroke-width: 0.6"/>
      </g>
     </g>
    </g>
    <g id="xtick_11">
     <g id="line2d_11">
      <g>
       <use xlink:href="#m5aafcfcec0" x="73.141177" y="258.515312" style="stroke: #000000; stroke-width: 0.6"/>
      </g>
     </g>
    </g>
    <g id="xtick_12">
     <g id="line2d_12">
      <g>
       <use xlink:href="#m5aafcfcec0" x="93.736027" y="258.515312" style="stroke: #000000; stroke-width: 0.6"/>
      </g>
     </g>
    </g>
    <g id="xtick_13">
     <g id="line2d_13">
      <g>
       <use xlink:href="#m5aafcfcec0" x="104.193651" y="258.515312" style="stroke: #000000; stroke-width: 0.6"/>
      </g>
     </g>
    </g>
    <g id="xtick_14">
     <g id="line2d_14">
      <g>
       <use xlink:href="#m5aafcfcec0" x="111.613453" y="258.515312" style="stroke: #000000; stroke-width: 0.6"/>
      </g>
     </g>
    </g>
    <g id="xtick_15">
     <g id="line2d_15">
      <g>
       <use xlink:href="#m5aafcfcec0" x="117.368699" y="258.515312" style="stroke: #000000; stroke-width: 0.6"/>
      </g>
     </g>
    </g>
    <g id="xtick_16">
     <g id="line2d_16">
      <g>
       <use xlink:href="#m5aafcfcec0" x="122.071077" y="258.515312" style="stroke: #000000; stroke-width: 0.6"/>
      </g>
     </g>
    </g>
    <g id="xtick_17">
     <g id="line2d_17">
      <g>
       <use xlink:href="#m5aafcfcec0" x="126.046881" y="258.515312" style="stroke: #000000; stroke-width: 0.6"/>
      </g>
     </g>
    </g>
    <g id="xtick_18">
     <g id="line2d_18">
      <g>
       <use xlink:href="#m5aafcfcec0" x="129.490879" y="258.515312" style="stroke: #000000; stroke-width: 0.6"/>
      </g>
     </g>
    </g>
    <g id="xtick_19">
     <g id="line2d_19">
      <g>
       <use xlink:href="#m5aafcfcec0" x="132.5287" y="258.515312" style="stroke: #000000; stroke-width: 0.6"/>
      </g>
     </g>
    </g>
    <g id="xtick_20">
     <g id="line2d_20">
      <g>
       <use xlink:href="#m5aafcfcec0" x="153.123551" y="258.515312" style="stroke: #000000; stroke-width: 0.6"/>
      </g>
     </g>
    </g>
    <g id="xtick_21">
     <g id="line2d_21">
      <g>
       <use xlink:href="#m5aafcfcec0" x="163.581174" y="258.515312" style="stroke: #000000; stroke-width: 0.6"/>
      </g>
     </g>
    </g>
    <g id="xtick_22">
     <g id="line2d_22">
      <g>
       <use xlink:href="#m5aafcfcec0" x="171.000977" y="258.515312" style="stroke: #000000; stroke-width: 0.6"/>
      </g>
     </g>
    </g>
    <g id="xtick_23">
     <g id="line2d_23">
      <g>
       <use xlink:href="#m5aafcfcec0" x="176.756222" y="258.515312" style="stroke: #000000; stroke-width: 0.6"/>
      </g>
     </g>
    </g>
    <g id="xtick_24">
     <g id="line2d_24">
      <g>
       <use xlink:href="#m5aafcfcec0" x="181.4586" y="258.515312" style="stroke: #000000; stroke-width: 0.6"/>
      </g>
     </g>
    </g>
    <g id="xtick_25">
     <g id="line2d_25">
      <g>
       <use xlink:href="#m5aafcfcec0" x="185.434404" y="258.515312" style="stroke: #000000; stroke-width: 0.6"/>
      </g>
     </g>
    </g>
    <g id="xtick_26">
     <g id="line2d_26">
      <g>
       <use xlink:href="#m5aafcfcec0" x="188.878403" y="258.515312" style="stroke: #000000; stroke-width: 0.6"/>
      </g>
     </g>
    </g>
    <g id="xtick_27">
     <g id="line2d_27">
      <g>
       <use xlink:href="#m5aafcfcec0" x="191.916224" y="258.515312" style="stroke: #000000; stroke-width: 0.6"/>
      </g>
     </g>
    </g>
    <g id="xtick_28">
     <g id="line2d_28">
      <g>
       <use xlink:href="#m5aafcfcec0" x="212.511074" y="258.515312" style="stroke: #000000; stroke-width: 0.6"/>
      </g>
     </g>
    </g>
    <g id="xtick_29">
     <g id="line2d_29">
      <g>
       <use xlink:href="#m5aafcfcec0" x="222.968698" y="258.515312" style="stroke: #000000; stroke-width: 0.6"/>
      </g>
     </g>
    </g>
    <g id="xtick_30">
     <g id="line2d_30">
      <g>
       <use xlink:href="#m5aafcfcec0" x="230.3885" y="258.515312" style="stroke: #000000; stroke-width: 0.6"/>
      </g>
     </g>
    </g>
    <g id="xtick_31">
     <g id="line2d_31">
      <g>
       <use xlink:href="#m5aafcfcec0" x="236.143746" y="258.515312" style="stroke: #000000; stroke-width: 0.6"/>
      </g>
     </g>
    </g>
    <g id="xtick_32">
     <g id="line2d_32">
      <g>
       <use xlink:href="#m5aafcfcec0" x="240.846124" y="258.515312" style="stroke: #000000; stroke-width: 0.6"/>
      </g>
     </g>
    </g>
    <g id="xtick_33">
     <g id="line2d_33">
      <g>
       <use xlink:href="#m5aafcfcec0" x="244.821928" y="258.515312" style="stroke: #000000; stroke-width: 0.6"/>
      </g>
     </g>
    </g>
    <g id="xtick_34">
     <g id="line2d_34">
      <g>
       <use xlink:href="#m5aafcfcec0" x="248.265926" y="258.515312" style="stroke: #000000; stroke-width: 0.6"/>
      </g>
     </g>
    </g>
    <g id="xtick_35">
     <g id="line2d_35">
      <g>
       <use xlink:href="#m5aafcfcec0" x="251.303748" y="258.515312" style="stroke: #000000; stroke-width: 0.6"/>
      </g>
     </g>
    </g>
    <g id="xtick_36">
     <g id="line2d_36">
      <g>
       <use xlink:href="#m5aafcfcec0" x="271.898598" y="258.515312" style="stroke: #000000; stroke-width: 0.6"/>
      </g>
     </g>
    </g>
    <g id="xtick_37">
     <g id="line2d_37">
      <g>
       <use xlink:href="#m5aafcfcec0" x="282.356222" y="258.515312" style="stroke: #000000; stroke-width: 0.6"/>
      </g>
     </g>
    </g>
    <g id="xtick_38">
     <g id="line2d_38">
      <g>
       <use xlink:href="#m5aafcfcec0" x="289.776024" y="258.515312" style="stroke: #000000; stroke-width: 0.6"/>
      </g>
     </g>
    </g>
    <g id="xtick_39">
     <g id="line2d_39">
      <g>
       <use xlink:href="#m5aafcfcec0" x="295.53127" y="258.515312" style="stroke: #000000; stroke-width: 0.6"/>
      </g>
     </g>
    </g>
    <g id="xtick_40">
     <g id="line2d_40">
      <g>
       <use xlink:href="#m5aafcfcec0" x="300.233648" y="258.515312" style="stroke: #000000; stroke-width: 0.6"/>
      </g>
     </g>
    </g>
    <g id="xtick_41">
     <g id="line2d_41">
      <g>
       <use xlink:href="#m5aafcfcec0" x="304.209452" y="258.515312" style="stroke: #000000; stroke-width: 0.6"/>
      </g>
     </g>
    </g>
    <g id="xtick_42">
     <g id="line2d_42">
      <g>
       <use xlink:href="#m5aafcfcec0" x="307.65345" y="258.515312" style="stroke: #000000; stroke-width: 0.6"/>
      </g>
     </g>
    </g>
    <g id="xtick_43">
     <g id="line2d_43">
      <g>
       <use xlink:href="#m5aafcfcec0" x="310.691271" y="258.515312" style="stroke: #000000; stroke-width: 0.6"/>
      </g>
     </g>
    </g>
    <g id="xtick_44">
     <g id="line2d_44">
      <g>
       <use xlink:href="#m5aafcfcec0" x="331.286122" y="258.515312" style="stroke: #000000; stroke-width: 0.6"/>
      </g>
     </g>
    </g>
    <g id="xtick_45">
     <g id="line2d_45">
      <g>
       <use xlink:href="#m5aafcfcec0" x="341.743745" y="258.515312" style="stroke: #000000; stroke-width: 0.6"/>
      </g>
     </g>
    </g>
    <g id="xtick_46">
     <g id="line2d_46">
      <g>
       <use xlink:href="#m5aafcfcec0" x="349.163548" y="258.515312" style="stroke: #000000; stroke-width: 0.6"/>
      </g>
     </g>
    </g>
    <g id="xtick_47">
     <g id="line2d_47">
      <g>
       <use xlink:href="#m5aafcfcec0" x="354.918793" y="258.515312" style="stroke: #000000; stroke-width: 0.6"/>
      </g>
     </g>
    </g>
    <g id="xtick_48">
     <g id="line2d_48">
      <g>
       <use xlink:href="#m5aafcfcec0" x="359.621171" y="258.515312" style="stroke: #000000; stroke-width: 0.6"/>
      </g>
     </g>
    </g>
    <g id="xtick_49">
     <g id="line2d_49">
      <g>
       <use xlink:href="#m5aafcfcec0" x="363.596975" y="258.515312" style="stroke: #000000; stroke-width: 0.6"/>
      </g>
     </g>
    </g>
    <g id="xtick_50">
     <g id="line2d_50">
      <g>
       <use xlink:href="#m5aafcfcec0" x="367.040974" y="258.515312" style="stroke: #000000; stroke-width: 0.6"/>
      </g>
     </g>
    </g>
    <g id="xtick_51">
     <g id="line2d_51">
      <g>
       <use xlink:href="#m5aafcfcec0" x="370.078795" y="258.515312" style="stroke: #000000; stroke-width: 0.6"/>
      </g>
     </g>
    </g>
    <g id="xtick_52">
     <g id="line2d_52">
      <g>
       <use xlink:href="#m5aafcfcec0" x="390.673645" y="258.515312" style="stroke: #000000; stroke-width: 0.6"/>
      </g>
     </g>
    </g>
    <g id="xtick_53">
     <g id="line2d_53">
      <g>
       <use xlink:href="#m5aafcfcec0" x="401.131269" y="258.515312" style="stroke: #000000; stroke-width: 0.6"/>
      </g>
     </g>
    </g>
    <g id="xtick_54">
     <g id="line2d_54">
      <g>
       <use xlink:href="#m5aafcfcec0" x="408.551071" y="258.515312" style="stroke: #000000; stroke-width: 0.6"/>
      </g>
     </g>
    </g>
    <g id="xtick_55">
     <g id="line2d_55">
      <g>
       <use xlink:href="#m5aafcfcec0" x="414.306317" y="258.515312" style="stroke: #000000; stroke-width: 0.6"/>
      </g>
     </g>
    </g>
    <g id="xtick_56">
     <g id="line2d_56">
      <g>
       <use xlink:href="#m5aafcfcec0" x="419.008695" y="258.515312" style="stroke: #000000; stroke-width: 0.6"/>
      </g>
     </g>
    </g>
    <g id="xtick_57">
     <g id="line2d_57">
      <g>
       <use xlink:href="#m5aafcfcec0" x="422.984499" y="258.515312" style="stroke: #000000; stroke-width: 0.6"/>
      </g>
     </g>
    </g>
    <g id="xtick_58">
     <g id="line2d_58">
      <g>
       <use xlink:href="#m5aafcfcec0" x="426.428497" y="258.515312" style="stroke: #000000; stroke-width: 0.6"/>
      </g>
     </g>
    </g>
    <g id="xtick_59">
     <g id="line2d_59">
      <g>
       <use xlink:href="#m5aafcfcec0" x="429.466319" y="258.515312" style="stroke: #000000; stroke-width: 0.6"/>
      </g>
     </g>
    </g>
    <g id="text_8">
     <!-- residence time (s) -->
     <g transform="translate(208.779766 288.916094) scale(0.1 -0.1)">
      <defs>
       <path id="DejaVuSans-55" d="M 2631 2963
Q 2534 3019 2420 3045
Q 2306 3072 2169 3072
Q 1681 3072 1420 2755
Q 1159 2438 1159 1844
L 1159 0
L 581 0
L 581 3500
L 1159 3500
L 1159 2956
Q 1341 3275 1631 3429
Q 1922 3584 2338 3584
Q 2397 3584 2469 3576
Q 2541 3569 2628 3553
L 2631 2963
z
" transform="scale(0.015625)"/>
       <path id="DejaVuSans-48" d="M 3597 1894
L 3597 1613
L 953 1613
Q 991 1019 1311 708
Q 1631 397 2203 397
Q 2534 397 2845 478
Q 3156 559 3463 722
L 3463 178
Q 3153 47 2828 -22
Q 2503 -91 2169 -91
Q 1331 -91 842 396
Q 353 884 353 1716
Q 353 2575 817 3079
Q 1281 3584 2069 3584
Q 2775 3584 3186 3129
Q 3597 2675 3597 1894
z
M 3022 2063
Q 3016 2534 2758 2815
Q 2500 3097 2075 3097
Q 1594 3097 1305 2825
Q 1016 2553 972 2059
L 3022 2063
z
" transform="scale(0.015625)"/>
       <path id="DejaVuSans-56" d="M 2834 3397
L 2834 2853
Q 2591 2978 2328 3040
Q 2066 3103 1784 3103
Q 1356 3103 1142 2972
Q 928 2841 928 2578
Q 928 2378 1081 2264
Q 1234 2150 1697 2047
L 1894 2003
Q 2506 1872 2764 1633
Q 3022 1394 3022 966
Q 3022 478 2636 193
Q 2250 -91 1575 -91
Q 1294 -91 989 -36
Q 684 19 347 128
L 347 722
Q 666 556 975 473
Q 1284 391 1588 391
Q 1994 391 2212 530
Q 2431 669 2431 922
Q 2431 1156 2273 1281
Q 2116 1406 1581 1522
L 1381 1569
Q 847 1681 609 1914
Q 372 2147 372 2553
Q 372 3047 722 3315
Q 1072 3584 1716 3584
Q 2034 3584 2315 3537
Q 2597 3491 2834 3397
z
" transform="scale(0.015625)"/>
       <path id="DejaVuSans-4c" d="M 603 3500
L 1178 3500
L 1178 0
L 603 0
L 603 3500
z
M 603 4863
L 1178 4863
L 1178 4134
L 603 4134
L 603 4863
z
" transform="scale(0.015625)"/>
       <path id="DejaVuSans-47" d="M 2906 2969
L 2906 4863
L 3481 4863
L 3481 0
L 2906 0
L 2906 525
Q 2725 213 2448 61
Q 2172 -91 1784 -91
Q 1150 -91 751 415
Q 353 922 353 1747
Q 353 2572 751 3078
Q 1150 3584 1784 3584
Q 2172 3584 2448 3432
Q 2725 3281 2906 2969
z
M 947 1747
Q 947 1113 1208 752
Q 1469 391 1925 391
Q 2381 391 2643 752
Q 2906 1113 2906 1747
Q 2906 2381 2643 2742
Q 2381 3103 1925 3103
Q 1469 3103 1208 2742
Q 947 2381 947 1747
z
" transform="scale(0.015625)"/>
       <path id="DejaVuSans-51" d="M 3513 2113
L 3513 0
L 2938 0
L 2938 2094
Q 2938 2591 2744 2837
Q 2550 3084 2163 3084
Q 1697 3084 1428 2787
Q 1159 2491 1159 1978
L 1159 0
L 581 0
L 581 3500
L 1159 3500
L 1159 2956
Q 1366 3272 1645 3428
Q 1925 3584 2291 3584
Q 2894 3584 3203 3211
Q 3513 2838 3513 2113
z
" transform="scale(0.015625)"/>
       <path id="DejaVuSans-46" d="M 3122 3366
L 3122 2828
Q 2878 2963 2633 3030
Q 2388 3097 2138 3097
Q 1578 3097 1268 2742
Q 959 2388 959 1747
Q 959 1106 1268 751
Q 1578 397 2138 397
Q 2388 397 2633 464
Q 2878 531 3122 666
L 3122 134
Q 2881 22 2623 -34
Q 2366 -91 2075 -91
Q 1284 -91 818 406
Q 353 903 353 1747
Q 353 2603 823 3093
Q 1294 3584 2113 3584
Q 2378 3584 2631 3529
Q 2884 3475 3122 3366
z
" transform="scale(0.015625)"/>
       <path id="DejaVuSans-3" transform="scale(0.015625)"/>
       <path id="DejaVuSans-57" d="M 1172 4494
L 1172 3500
L 2356 3500
L 2356 3053
L 1172 3053
L 1172 1153
Q 1172 725 1289 603
Q 1406 481 1766 481
L 2356 481
L 2356 0
L 1766 0
Q 1100 0 847 248
Q 594 497 594 1153
L 594 3053
L 172 3053
L 172 3500
L 594 3500
L 594 4494
L 1172 4494
z
" transform="scale(0.015625)"/>
       <path id="DejaVuSans-50" d="M 3328 2828
Q 3544 3216 3844 3400
Q 4144 3584 4550 3584
Q 5097 3584 5394 3201
Q 5691 2819 5691 2113
L 5691 0
L 5113 0
L 5113 2094
Q 5113 2597 4934 2840
Q 4756 3084 4391 3084
Q 3944 3084 3684 2787
Q 3425 2491 3425 1978
L 3425 0
L 2847 0
L 2847 2094
Q 2847 2600 2669 2842
Q 2491 3084 2119 3084
Q 1678 3084 1418 2786
Q 1159 2488 1159 1978
L 1159 0
L 581 0
L 581 3500
L 1159 3500
L 1159 2956
Q 1356 3278 1631 3431
Q 1906 3584 2284 3584
Q 2666 3584 2933 3390
Q 3200 3197 3328 2828
z
" transform="scale(0.015625)"/>
       <path id="DejaVuSans-b" d="M 1984 4856
Q 1566 4138 1362 3434
Q 1159 2731 1159 2009
Q 1159 1288 1364 580
Q 1569 -128 1984 -844
L 1484 -844
Q 1016 -109 783 600
Q 550 1309 550 2009
Q 550 2706 781 3412
Q 1013 4119 1484 4856
L 1984 4856
z
" transform="scale(0.015625)"/>
       <path id="DejaVuSans-c" d="M 513 4856
L 1013 4856
Q 1481 4119 1714 3412
Q 1947 2706 1947 2009
Q 1947 1309 1714 600
Q 1481 -109 1013 -844
L 513 -844
Q 928 -128 1133 580
Q 1338 1288 1338 2009
Q 1338 2731 1133 3434
Q 928 4138 513 4856
z
" transform="scale(0.015625)"/>
      </defs>
      <use xlink:href="#DejaVuSans-55"/>
      <use xlink:href="#DejaVuSans-48" transform="translate(38.90625 0)"/>
      <use xlink:href="#DejaVuSans-56" transform="translate(100.4375 0)"/>
      <use xlink:href="#DejaVuSans-4c" transform="translate(152.53125 0)"/>
      <use xlink:href="#DejaVuSans-47" transform="translate(180.3125 0)"/>
      <use xlink:href="#DejaVuSans-48" transform="translate(243.796875 0)"/>
      <use xlink:href="#DejaVuSans-51" transform="translate(305.328125 0)"/>
      <use xlink:href="#DejaVuSans-46" transform="translate(368.703125 0)"/>
      <use xlink:href="#DejaVuSans-48" transform="translate(423.6875 0)"/>
      <use xlink:href="#DejaVuSans-3" transform="translate(485.21875 0)"/>
      <use xlink:href="#DejaVuSans-57" transform="translate(517 0)"/>
      <use xlink:href="#DejaVuSans-4c" transform="translate(556.203125 0)"/>
      <use xlink:href="#DejaVuSans-50" transform="translate(583.984375 0)"/>
      <use xlink:href="#DejaVuSans-48" transform="translate(681.390625 0)"/>
      <use xlink:href="#DejaVuSans-3" transform="translate(742.921875 0)"/>
      <use xlink:href="#DejaVuSans-b" transform="translate(774.703125 0)"/>
      <use xlink:href="#DejaVuSans-56" transform="translate(813.71875 0)"/>
      <use xlink:href="#DejaVuSans-c" transform="translate(865.8125 0)"/>
     </g>
    </g>
   </g>
   <g id="matplotlib.axis_2">
    <g id="ytick_1">
     <g id="line2d_60">
      <defs>
       <path id="m7630b1cd6e" d="M 0 0
L -3.5 0
" style="stroke: #000000; stroke-width: 0.8"/>
      </defs>
      <g>
       <use xlink:href="#m7630b1cd6e" x="58.042344" y="247.255376" style="stroke: #000000; stroke-width: 0.8"/>
      </g>
     </g>
     <g id="text_9">
      <!-- 1200 -->
      <g transform="translate(25.592344 251.054204) scale(0.1 -0.1)">
       <use xlink:href="#DejaVuSans-14"/>
       <use xlink:href="#DejaVuSans-15" transform="translate(63.625 0)"/>
       <use xlink:href="#DejaVuSans-13" transform="translate(127.25 0)"/>
       <use xlink:href="#DejaVuSans-13" transform="translate(190.875 0)"/>
      </g>
     </g>
    </g>
    <g id="ytick_2">
     <g id="line2d_61">
      <g>
       <use xlink:href="#m7630b1cd6e" x="58.042344" y="215.577812" style="stroke: #000000; stroke-width: 0.8"/>
      </g>
     </g>
     <g id="text_10">
      <!-- 1400 -->
      <g transform="translate(25.592344 219.37664) scale(0.1 -0.1)">
       <use xlink:href="#DejaVuSans-14"/>
       <use xlink:href="#DejaVuSans-17" transform="translate(63.625 0)"/>
       <use xlink:href="#DejaVuSans-13" transform="translate(127.25 0)"/>
       <use xlink:href="#DejaVuSans-13" transform="translate(190.875 0)"/>
      </g>
     </g>
    </g>
    <g id="ytick_3">
     <g id="line2d_62">
      <g>
       <use xlink:href="#m7630b1cd6e" x="58.042344" y="183.900248" style="stroke: #000000; stroke-width: 0.8"/>
      </g>
     </g>
     <g id="text_11">
      <!-- 1600 -->
      <g transform="translate(25.592344 187.699076) scale(0.1 -0.1)">
       <use xlink:href="#DejaVuSans-14"/>
       <use xlink:href="#DejaVuSans-19" transform="translate(63.625 0)"/>
       <use xlink:href="#DejaVuSans-13" transform="translate(127.25 0)"/>
       <use xlink:href="#DejaVuSans-13" transform="translate(190.875 0)"/>
      </g>
     </g>
    </g>
    <g id="ytick_4">
     <g id="line2d_63">
      <g>
       <use xlink:href="#m7630b1cd6e" x="58.042344" y="152.222684" style="stroke: #000000; stroke-width: 0.8"/>
      </g>
     </g>
     <g id="text_12">
      <!-- 1800 -->
      <g transform="translate(25.592344 156.021512) scale(0.1 -0.1)">
       <defs>
        <path id="DejaVuSans-1b" d="M 2034 2216
Q 1584 2216 1326 1975
Q 1069 1734 1069 1313
Q 1069 891 1326 650
Q 1584 409 2034 409
Q 2484 409 2743 651
Q 3003 894 3003 1313
Q 3003 1734 2745 1975
Q 2488 2216 2034 2216
z
M 1403 2484
Q 997 2584 770 2862
Q 544 3141 544 3541
Q 544 4100 942 4425
Q 1341 4750 2034 4750
Q 2731 4750 3128 4425
Q 3525 4100 3525 3541
Q 3525 3141 3298 2862
Q 3072 2584 2669 2484
Q 3125 2378 3379 2068
Q 3634 1759 3634 1313
Q 3634 634 3220 271
Q 2806 -91 2034 -91
Q 1263 -91 848 271
Q 434 634 434 1313
Q 434 1759 690 2068
Q 947 2378 1403 2484
z
M 1172 3481
Q 1172 3119 1398 2916
Q 1625 2713 2034 2713
Q 2441 2713 2670 2916
Q 2900 3119 2900 3481
Q 2900 3844 2670 4047
Q 2441 4250 2034 4250
Q 1625 4250 1398 4047
Q 1172 3844 1172 3481
z
" transform="scale(0.015625)"/>
       </defs>
       <use xlink:href="#DejaVuSans-14"/>
       <use xlink:href="#DejaVuSans-1b" transform="translate(63.625 0)"/>
       <use xlink:href="#DejaVuSans-13" transform="translate(127.25 0)"/>
       <use xlink:href="#DejaVuSans-13" transform="translate(190.875 0)"/>
      </g>
     </g>
    </g>
    <g id="ytick_5">
     <g id="line2d_64">
      <g>
       <use xlink:href="#m7630b1cd6e" x="58.042344" y="120.54512" style="stroke: #000000; stroke-width: 0.8"/>
      </g>
     </g>
     <g id="text_13">
      <!-- 2000 -->
      <g transform="translate(25.592344 124.343948) scale(0.1 -0.1)">
       <use xlink:href="#DejaVuSans-15"/>
       <use xlink:href="#DejaVuSans-13" transform="translate(63.625 0)"/>
       <use xlink:href="#DejaVuSans-13" transform="translate(127.25 0)"/>
       <use xlink:href="#DejaVuSans-13" transform="translate(190.875 0)"/>
      </g>
     </g>
    </g>
    <g id="ytick_6">
     <g id="line2d_65">
      <g>
       <use xlink:href="#m7630b1cd6e" x="58.042344" y="88.867556" style="stroke: #000000; stroke-width: 0.8"/>
      </g>
     </g>
     <g id="text_14">
      <!-- 2200 -->
      <g transform="translate(25.592344 92.666384) scale(0.1 -0.1)">
       <use xlink:href="#DejaVuSans-15"/>
       <use xlink:href="#DejaVuSans-15" transform="translate(63.625 0)"/>
       <use xlink:href="#DejaVuSans-13" transform="translate(127.25 0)"/>
       <use xlink:href="#DejaVuSans-13" transform="translate(190.875 0)"/>
      </g>
     </g>
    </g>
    <g id="ytick_7">
     <g id="line2d_66">
      <g>
       <use xlink:href="#m7630b1cd6e" x="58.042344" y="57.189992" style="stroke: #000000; stroke-width: 0.8"/>
      </g>
     </g>
     <g id="text_15">
      <!-- 2400 -->
      <g transform="translate(25.592344 60.988821) scale(0.1 -0.1)">
       <use xlink:href="#DejaVuSans-15"/>
       <use xlink:href="#DejaVuSans-17" transform="translate(63.625 0)"/>
       <use xlink:href="#DejaVuSans-13" transform="translate(127.25 0)"/>
       <use xlink:href="#DejaVuSans-13" transform="translate(190.875 0)"/>
      </g>
     </g>
    </g>
    <g id="ytick_8">
     <g id="line2d_67">
      <g>
       <use xlink:href="#m7630b1cd6e" x="58.042344" y="25.512429" style="stroke: #000000; stroke-width: 0.8"/>
      </g>
     </g>
     <g id="text_16">
      <!-- 2600 -->
      <g transform="translate(25.592344 29.311257) scale(0.1 -0.1)">
       <use xlink:href="#DejaVuSans-15"/>
       <use xlink:href="#DejaVuSans-19" transform="translate(63.625 0)"/>
       <use xlink:href="#DejaVuSans-13" transform="translate(127.25 0)"/>
       <use xlink:href="#DejaVuSans-13" transform="translate(190.875 0)"/>
      </g>
     </g>
    </g>
    <g id="text_17">
     <!-- temperature (K) -->
     <g transform="translate(19.19 174.855312) rotate(-90) scale(0.1 -0.1)">
      <defs>
       <path id="DejaVuSans-53" d="M 1159 525
L 1159 -1331
L 581 -1331
L 581 3500
L 1159 3500
L 1159 2969
Q 1341 3281 1617 3432
Q 1894 3584 2278 3584
Q 2916 3584 3314 3078
Q 3713 2572 3713 1747
Q 3713 922 3314 415
Q 2916 -91 2278 -91
Q 1894 -91 1617 61
Q 1341 213 1159 525
z
M 3116 1747
Q 3116 2381 2855 2742
Q 2594 3103 2138 3103
Q 1681 3103 1420 2742
Q 1159 2381 1159 1747
Q 1159 1113 1420 752
Q 1681 391 2138 391
Q 2594 391 2855 752
Q 3116 1113 3116 1747
z
" transform="scale(0.015625)"/>
       <path id="DejaVuSans-44" d="M 2194 1759
Q 1497 1759 1228 1600
Q 959 1441 959 1056
Q 959 750 1161 570
Q 1363 391 1709 391
Q 2188 391 2477 730
Q 2766 1069 2766 1631
L 2766 1759
L 2194 1759
z
M 3341 1997
L 3341 0
L 2766 0
L 2766 531
Q 2569 213 2275 61
Q 1981 -91 1556 -91
Q 1019 -91 701 211
Q 384 513 384 1019
Q 384 1609 779 1909
Q 1175 2209 1959 2209
L 2766 2209
L 2766 2266
Q 2766 2663 2505 2880
Q 2244 3097 1772 3097
Q 1472 3097 1187 3025
Q 903 2953 641 2809
L 641 3341
Q 956 3463 1253 3523
Q 1550 3584 1831 3584
Q 2591 3584 2966 3190
Q 3341 2797 3341 1997
z
" transform="scale(0.015625)"/>
       <path id="DejaVuSans-58" d="M 544 1381
L 544 3500
L 1119 3500
L 1119 1403
Q 1119 906 1312 657
Q 1506 409 1894 409
Q 2359 409 2629 706
Q 2900 1003 2900 1516
L 2900 3500
L 3475 3500
L 3475 0
L 2900 0
L 2900 538
Q 2691 219 2414 64
Q 2138 -91 1772 -91
Q 1169 -91 856 284
Q 544 659 544 1381
z
M 1991 3584
L 1991 3584
z
" transform="scale(0.015625)"/>
       <path id="DejaVuSans-2e" d="M 628 4666
L 1259 4666
L 1259 2694
L 3353 4666
L 4166 4666
L 1850 2491
L 4331 0
L 3500 0
L 1259 2247
L 1259 0
L 628 0
L 628 4666
z
" transform="scale(0.015625)"/>
      </defs>
      <use xlink:href="#DejaVuSans-57"/>
      <use xlink:href="#DejaVuSans-48" transform="translate(39.203125 0)"/>
      <use xlink:href="#DejaVuSans-50" transform="translate(100.734375 0)"/>
      <use xlink:href="#DejaVuSans-53" transform="translate(198.140625 0)"/>
      <use xlink:href="#DejaVuSans-48" transform="translate(261.625 0)"/>
      <use xlink:href="#DejaVuSans-55" transform="translate(323.15625 0)"/>
      <use xlink:href="#DejaVuSans-44" transform="translate(364.265625 0)"/>
      <use xlink:href="#DejaVuSans-57" transform="translate(425.546875 0)"/>
      <use xlink:href="#DejaVuSans-58" transform="translate(464.75 0)"/>
      <use xlink:href="#DejaVuSans-55" transform="translate(528.125 0)"/>
      <use xlink:href="#DejaVuSans-48" transform="translate(567.03125 0)"/>
      <use xlink:href="#DejaVuSans-3" transform="translate(628.5625 0)"/>
      <use xlink:href="#DejaVuSans-b" transform="translate(660.34375 0)"/>
      <use xlink:href="#DejaVuSans-2e" transform="translate(699.359375 0)"/>
      <use xlink:href="#DejaVuSans-c" transform="translate(764.9375 0)"/>
     </g>
    </g>
   </g>
   <g id="line2d_68">
    <path d="M 432.183743 22.059787
L 414.306317 22.072293
L 411.72715 22.074928
L 408.632149 22.078462
L 404.918148 22.083308
L 400.461347 22.090133
L 395.113186 22.100065
L 388.695392 22.115094
L 380.994041 22.138944
L 371.752421 22.179048
L 361.435757 22.24528
L 351.119102 22.345639
L 340.802463 22.498372
L 330.485864 22.731696
L 320.169355 23.088698
L 309.85305 23.633304
L 299.537196 24.455681
L 289.2223 25.673396
L 278.909302 27.422653
L 268.599691 29.833815
L 258.295327 32.990403
L 247.997735 36.883813
L 237.707062 41.390875
L 227.421556 46.296724
L 217.138202 51.353793
L 206.854069 56.345529
L 196.567435 61.135942
L 186.278351 65.708391
L 175.988895 70.208548
L 165.704066 75.027312
L 155.43701 81.087723
L 145.257266 92.114669
L 142.888893 100.326639
L 142.807194 101.782113
" clip-path="url(#p922ed19594)" style="fill: none; stroke: #1f77b4; stroke-width: 1.5; stroke-linecap: square"/>
   </g>
   <g id="line2d_69">
    <path d="M 142.807194 101.782113
L 142.922556 104.906462
L 143.436188 108.197494
L 144.338945 111.575028
L 145.733303 115.31262
L 147.808059 119.654943
L 150.285339 123.982313
L 152.783139 127.852054
L 156.549887 133.162909
L 160.330223 138.112544
L 165.383143 144.357515
L 171.712823 151.75622
L 178.054277 158.779591
L 184.405944 165.459114
L 190.766745 171.814784
L 197.135735 177.864943
L 203.512107 183.625568
L 209.895211 189.108598
L 216.284543 194.321615
L 222.679702 199.26861
L 229.080353 203.951095
L 235.486196 208.369037
L 241.896945 212.521599
L 248.31231 216.407984
L 254.731978 220.028681
L 261.155594 223.387119
L 267.582753 226.491308
L 274.013008 229.354894
L 280.445888 231.997219
L 288.168156 234.910346
L 295.892776 237.589303
L 306.194655 240.903647
L 316.49639 244.23136
L 317.783291 244.732145
L 319.388348 245.647965
L 319.481827 245.825973
L 319.481827 245.825973
" clip-path="url(#p922ed19594)" style="fill: none; stroke-dasharray: 5.55,2.4; stroke-dashoffset: 0; stroke: #ff7f0e; stroke-width: 1.5"/>
   </g>
   <g id="line2d_70">
    <path d="M 75.858601 247.255377
L 77.905855 247.255377
L 79.953109 247.255377
L 82.000363 247.255377
L 84.047617 247.255377
L 86.094871 247.255377
L 88.142125 247.255377
L 90.189379 247.255377
L 92.236633 247.255377
L 94.283887 247.255378
L 96.331141 247.255378
L 98.378395 247.255378
L 100.425649 247.255378
L 102.472903 247.255378
L 104.520157 247.255378
L 106.567411 247.255379
L 108.614665 247.255379
L 110.661919 247.255379
L 112.709173 247.255379
L 114.756427 247.25538
L 116.803681 247.25538
L 118.850935 247.25538
L 120.898189 247.255381
L 122.945443 247.255381
L 124.992697 247.255381
L 127.039951 247.255382
L 129.087205 247.255382
L 131.134459 247.255383
L 133.181713 247.255383
L 135.228967 247.255384
L 137.276221 247.255385
L 139.323475 247.255386
L 141.370729 247.255386
L 143.417983 247.255387
L 145.465237 247.255388
L 147.512491 247.255389
L 149.559745 247.25539
L 151.606999 247.255391
L 153.654253 247.255393
L 155.701507 247.255394
L 157.748761 247.255395
L 159.796015 247.255397
L 161.843269 247.255399
L 163.890523 247.255401
L 165.937777 247.255403
L 167.985031 247.255405
L 170.032285 247.255407
L 172.079539 247.25541
L 174.126793 247.255412
L 176.174047 247.255415
L 178.221301 247.255418
L 180.268555 247.255422
L 182.315809 247.255425
L 184.363063 247.255429
L 186.410317 247.255433
L 188.457571 247.255437
L 190.504825 247.255442
L 192.552079 247.255447
L 194.599333 247.255452
L 196.646587 247.255458
L 198.693841 247.255463
L 200.741095 247.25547
L 202.788349 247.255476
L 204.835603 247.255482
L 206.882857 247.255489
L 208.930111 247.255496
L 210.977365 247.255502
L 213.024619 247.255509
L 215.071873 247.255515
L 217.119127 247.25552
L 219.166381 247.255523
L 221.213635 247.255526
L 223.260889 247.255525
L 225.308143 247.255521
L 227.355397 247.255513
L 229.402651 247.255499
L 231.449905 247.255476
L 233.497159 247.255443
L 235.544413 247.255396
L 237.591667 247.255331
L 239.638921 247.255243
L 241.686175 247.255125
L 243.733429 247.254971
L 245.780683 247.254771
L 247.827937 247.254516
L 249.875191 247.254192
L 251.922445 247.253789
L 253.969699 247.253292
L 256.016953 247.252687
L 258.064207 247.251958
L 260.111461 247.25109
L 262.158715 247.250066
L 264.205969 247.248866
L 266.253223 247.247472
L 268.300477 247.245859
L 270.347731 247.244002
L 272.394985 247.241871
L 274.442239 247.239431
L 276.489493 247.236639
L 278.536747 247.233446
L 280.584001 247.229794
L 282.631255 247.225611
L 284.678509 247.22081
L 286.725763 247.215285
L 288.773017 247.208906
L 290.820271 247.20151
L 292.867525 247.192891
L 294.914779 247.182791
L 296.962033 247.170871
L 299.009287 247.156691
L 301.056541 247.139661
L 303.103795 247.118974
L 305.151049 247.093494
L 307.198303 247.061568
L 309.245557 247.020673
L 311.292811 246.966712
L 313.340065 246.8924
L 315.387319 246.78276
L 317.434573 246.597088
L 319.481827 245.918904
" clip-path="url(#p922ed19594)" style="fill: none; stroke: #9467bd; stroke-width: 1.5; stroke-linecap: square"/>
   </g>
   <g id="line2d_71">
    <defs>
     <path id="m95a19238cb" d="M 0 4
C 1.060812 4 2.078319 3.578535 2.828427 2.828427
C 3.578535 2.078319 4 1.060812 4 0
C 4 -1.060812 3.578535 -2.078319 2.828427 -2.828427
C 2.078319 -3.578535 1.060812 -4 0 -4
C -1.060812 -4 -2.078319 -3.578535 -2.828427 -2.828427
C -3.578535 -2.078319 -4 -1.060812 -4 0
C -4 1.060812 -3.578535 2.078319 -2.828427 2.828427
C -2.078319 3.578535 -1.060812 4 0 4
z
" style="stroke: #d62728"/>
    </defs>
    <g clip-path="url(#p922ed19594)">
     <use xlink:href="#m95a19238cb" x="142.807194" y="101.782113" style="fill: #d62728; stroke: #d62728"/>
    </g>
   </g>
   <g id="line2d_72">
    <defs>
     <path id="m01ad2ce5df" d="M -4 4
L 4 4
L 4 -4
L -4 -4
z
" style="stroke: #2ca02c; stroke-linejoin: miter"/>
    </defs>
    <g clip-path="url(#p922ed19594)">
     <use xlink:href="#m01ad2ce5df" x="319.481827" y="245.825973" style="fill: #2ca02c; stroke: #2ca02c; stroke-linejoin: miter"/>
    </g>
   </g>
   <g id="patch_3">
    <path d="M 58.042344 258.515312
L 58.042344 10.8
" style="fill: none; stroke: #000000; stroke-width: 0.8; stroke-linejoin: miter; stroke-linecap: square"/>
   </g>
   <g id="patch_4">
    <path d="M 450 258.515312
L 450 10.8
" style="fill: none; stroke: #000000; stroke-width: 0.8; stroke-linejoin: miter; stroke-linecap: square"/>
   </g>
   <g id="patch_5">
    <path d="M 58.042344 258.515312
L 450 258.515312
" style="fill: none; stroke: #000000; stroke-width: 0.8; stroke-linejoin: miter; stroke-linecap: square"/>
   </g>
   <g id="patch_6">
    <path d="M 58.042344 10.8
L 450 10.8
" style="fill: none; stroke: #000000; stroke-width: 0.8; stroke-linejoin: miter; stroke-linecap: square"/>
   </g>
   <g id="legend_1">
    <g id="patch_7">
     <path d="M 255.30625 173.659609
L 443 173.659609
Q 445 173.659609 445 171.659609
L 445 97.655703
Q 445 95.655703 443 95.655703
L 255.30625 95.655703
Q 253.30625 95.655703 253.30625 97.655703
L 253.30625 171.659609
Q 253.30625 173.659609 255.30625 173.659609
z
" style="fill: #ffffff; opacity: 0.8; stroke: #cccccc; stroke-linejoin: miter"/>
    </g>
    <g id="line2d_73">
     <path d="M 257.30625 103.754141
L 267.30625 103.754141
L 277.30625 103.754141
" style="fill: none; stroke: #1f77b4; stroke-width: 1.5; stroke-linecap: square"/>
    </g>
    <g id="text_18">
     <!-- upper (burning) branch -->
     <g transform="translate(285.30625 107.254141) scale(0.1 -0.1)">
      <defs>
       <path id="DejaVuSans-45" d="M 3116 1747
Q 3116 2381 2855 2742
Q 2594 3103 2138 3103
Q 1681 3103 1420 2742
Q 1159 2381 1159 1747
Q 1159 1113 1420 752
Q 1681 391 2138 391
Q 2594 391 2855 752
Q 3116 1113 3116 1747
z
M 1159 2969
Q 1341 3281 1617 3432
Q 1894 3584 2278 3584
Q 2916 3584 3314 3078
Q 3713 2572 3713 1747
Q 3713 922 3314 415
Q 2916 -91 2278 -91
Q 1894 -91 1617 61
Q 1341 213 1159 525
L 1159 0
L 581 0
L 581 4863
L 1159 4863
L 1159 2969
z
" transform="scale(0.015625)"/>
       <path id="DejaVuSans-4a" d="M 2906 1791
Q 2906 2416 2648 2759
Q 2391 3103 1925 3103
Q 1463 3103 1205 2759
Q 947 2416 947 1791
Q 947 1169 1205 825
Q 1463 481 1925 481
Q 2391 481 2648 825
Q 2906 1169 2906 1791
z
M 3481 434
Q 3481 -459 3084 -895
Q 2688 -1331 1869 -1331
Q 1566 -1331 1297 -1286
Q 1028 -1241 775 -1147
L 775 -588
Q 1028 -725 1275 -790
Q 1522 -856 1778 -856
Q 2344 -856 2625 -561
Q 2906 -266 2906 331
L 2906 616
Q 2728 306 2450 153
Q 2172 0 1784 0
Q 1141 0 747 490
Q 353 981 353 1791
Q 353 2603 747 3093
Q 1141 3584 1784 3584
Q 2172 3584 2450 3431
Q 2728 3278 2906 2969
L 2906 3500
L 3481 3500
L 3481 434
z
" transform="scale(0.015625)"/>
       <path id="DejaVuSans-4b" d="M 3513 2113
L 3513 0
L 2938 0
L 2938 2094
Q 2938 2591 2744 2837
Q 2550 3084 2163 3084
Q 1697 3084 1428 2787
Q 1159 2491 1159 1978
L 1159 0
L 581 0
L 581 4863
L 1159 4863
L 1159 2956
Q 1366 3272 1645 3428
Q 1925 3584 2291 3584
Q 2894 3584 3203 3211
Q 3513 2838 3513 2113
z
" transform="scale(0.015625)"/>
      </defs>
      <use xlink:href="#DejaVuSans-58"/>
      <use xlink:href="#DejaVuSans-53" transform="translate(63.375 0)"/>
      <use xlink:href="#DejaVuSans-53" transform="translate(126.859375 0)"/>
      <use xlink:href="#DejaVuSans-48" transform="translate(190.34375 0)"/>
      <use xlink:href="#DejaVuSans-55" transform="translate(251.875 0)"/>
      <use xlink:href="#DejaVuSans-3" transform="translate(292.984375 0)"/>
      <use xlink:href="#DejaVuSans-b" transform="translate(324.765625 0)"/>
      <use xlink:href="#DejaVuSans-45" transform="translate(363.78125 0)"/>
      <use xlink:href="#DejaVuSans-58" transform="translate(427.265625 0)"/>
      <use xlink:href="#DejaVuSans-55" transform="translate(490.640625 0)"/>
      <use xlink:href="#DejaVuSans-51" transform="translate(530 0)"/>
      <use xlink:href="#DejaVuSans-4c" transform="translate(593.375 0)"/>
      <use xlink:href="#DejaVuSans-51" transform="translate(621.15625 0)"/>
      <use xlink:href="#DejaVuSans-4a" transform="translate(684.53125 0)"/>
      <use xlink:href="#DejaVuSans-c" transform="translate(748.015625 0)"/>
      <use xlink:href="#DejaVuSans-3" transform="translate(787.03125 0)"/>
      <use xlink:href="#DejaVuSans-45" transform="translate(818.8125 0)"/>
      <use xlink:href="#DejaVuSans-55" transform="translate(882.296875 0)"/>
      <use xlink:href="#DejaVuSans-44" transform="translate(923.40625 0)"/>
      <use xlink:href="#DejaVuSans-51" transform="translate(984.6875 0)"/>
      <use xlink:href="#DejaVuSans-46" transform="translate(1048.0625 0)"/>
      <use xlink:href="#DejaVuSans-4b" transform="translate(1103.046875 0)"/>
     </g>
    </g>
    <g id="line2d_74">
     <path d="M 257.30625 118.754922
L 267.30625 118.754922
L 277.30625 118.754922
" style="fill: none; stroke-dasharray: 5.55,2.4; stroke-dashoffset: 0; stroke: #ff7f0e; stroke-width: 1.5"/>
    </g>
    <g id="text_19">
     <!-- middle (unstable) branch -->
     <g transform="translate(285.30625 122.254922) scale(0.1 -0.1)">
      <defs>
       <path id="DejaVuSans-4f" d="M 603 4863
L 1178 4863
L 1178 0
L 603 0
L 603 4863
z
" transform="scale(0.015625)"/>
      </defs>
      <use xlink:href="#DejaVuSans-50"/>
      <use xlink:href="#DejaVuSans-4c" transform="translate(97.40625 0)"/>
      <use xlink:href="#DejaVuSans-47" transform="translate(125.1875 0)"/>
      <use xlink:href="#DejaVuSans-47" transform="translate(188.671875 0)"/>
      <use xlink:href="#DejaVuSans-4f" transform="translate(252.15625 0)"/>
      <use xlink:href="#DejaVuSans-48" transform="translate(279.9375 0)"/>
      <use xlink:href="#DejaVuSans-3" transform="translate(341.46875 0)"/>
      <use xlink:href="#DejaVuSans-b" transform="translate(373.25 0)"/>
      <use xlink:href="#DejaVuSans-58" transform="translate(412.265625 0)"/>
      <use xlink:href="#DejaVuSans-51" transform="translate(475.640625 0)"/>
      <use xlink:href="#DejaVuSans-56" transform="translate(539.015625 0)"/>
      <use xlink:href="#DejaVuSans-57" transform="translate(591.109375 0)"/>
      <use xlink:href="#DejaVuSans-44" transform="translate(630.3125 0)"/>
      <use xlink:href="#DejaVuSans-45" transform="translate(691.59375 0)"/>
      <use xlink:href="#DejaVuSans-4f" transform="translate(755.078125 0)"/>
      <use xlink:href="#DejaVuSans-48" transform="translate(782.859375 0)"/>
      <use xlink:href="#DejaVuSans-c" transform="translate(844.390625 0)"/>
      <use xlink:href="#DejaVuSans-3" transform="translate(883.40625 0)"/>
      <use xlink:href="#DejaVuSans-45" transform="translate(915.1875 0)"/>
      <use xlink:href="#DejaVuSans-55" transform="translate(978.671875 0)"/>
      <use xlink:href="#DejaVuSans-44" transform="translate(1019.78125 0)"/>
      <use xlink:href="#DejaVuSans-51" transform="translate(1081.0625 0)"/>
      <use xlink:href="#DejaVuSans-46" transform="translate(1144.4375 0)"/>
      <use xlink:href="#DejaVuSans-4b" transform="translate(1199.421875 0)"/>
     </g>
    </g>
    <g id="line2d_75">
     <path d="M 257.30625 133.755703
L 267.30625 133.755703
L 277.30625 133.755703
" style="fill: none; stroke: #9467bd; stroke-width: 1.5; stroke-linecap: square"/>
    </g>
    <g id="text_20">
     <!-- lower (weakly-reacting) branch -->
     <g transform="translate(285.30625 137.255703) scale(0.1 -0.1)">
      <defs>
       <path id="DejaVuSans-52" d="M 1959 3097
Q 1497 3097 1228 2736
Q 959 2375 959 1747
Q 959 1119 1226 758
Q 1494 397 1959 397
Q 2419 397 2687 759
Q 2956 1122 2956 1747
Q 2956 2369 2687 2733
Q 2419 3097 1959 3097
z
M 1959 3584
Q 2709 3584 3137 3096
Q 3566 2609 3566 1747
Q 3566 888 3137 398
Q 2709 -91 1959 -91
Q 1206 -91 779 398
Q 353 888 353 1747
Q 353 2609 779 3096
Q 1206 3584 1959 3584
z
" transform="scale(0.015625)"/>
       <path id="DejaVuSans-5a" d="M 269 3500
L 844 3500
L 1563 769
L 2278 3500
L 2956 3500
L 3675 769
L 4391 3500
L 4966 3500
L 4050 0
L 3372 0
L 2619 2869
L 1863 0
L 1184 0
L 269 3500
z
" transform="scale(0.015625)"/>
       <path id="DejaVuSans-4e" d="M 581 4863
L 1159 4863
L 1159 1991
L 2875 3500
L 3609 3500
L 1753 1863
L 3688 0
L 2938 0
L 1159 1709
L 1159 0
L 581 0
L 581 4863
z
" transform="scale(0.015625)"/>
       <path id="DejaVuSans-5c" d="M 2059 -325
Q 1816 -950 1584 -1140
Q 1353 -1331 966 -1331
L 506 -1331
L 506 -850
L 844 -850
Q 1081 -850 1212 -737
Q 1344 -625 1503 -206
L 1606 56
L 191 3500
L 800 3500
L 1894 763
L 2988 3500
L 3597 3500
L 2059 -325
z
" transform="scale(0.015625)"/>
       <path id="DejaVuSans-10" d="M 313 2009
L 1997 2009
L 1997 1497
L 313 1497
L 313 2009
z
" transform="scale(0.015625)"/>
      </defs>
      <use xlink:href="#DejaVuSans-4f"/>
      <use xlink:href="#DejaVuSans-52" transform="translate(27.78125 0)"/>
      <use xlink:href="#DejaVuSans-5a" transform="translate(88.96875 0)"/>
      <use xlink:href="#DejaVuSans-48" transform="translate(170.75 0)"/>
      <use xlink:href="#DejaVuSans-55" transform="translate(232.28125 0)"/>
      <use xlink:href="#DejaVuSans-3" transform="translate(273.390625 0)"/>
      <use xlink:href="#DejaVuSans-b" transform="translate(305.171875 0)"/>
      <use xlink:href="#DejaVuSans-5a" transform="translate(344.1875 0)"/>
      <use xlink:href="#DejaVuSans-48" transform="translate(425.96875 0)"/>
      <use xlink:href="#DejaVuSans-44" transform="translate(487.5 0)"/>
      <use xlink:href="#DejaVuSans-4e" transform="translate(548.78125 0)"/>
      <use xlink:href="#DejaVuSans-4f" transform="translate(606.6875 0)"/>
      <use xlink:href="#DejaVuSans-5c" transform="translate(634.46875 0)"/>
      <use xlink:href="#DejaVuSans-10" transform="translate(691.90625 0)"/>
      <use xlink:href="#DejaVuSans-55" transform="translate(727.984375 0)"/>
      <use xlink:href="#DejaVuSans-48" transform="translate(766.890625 0)"/>
      <use xlink:href="#DejaVuSans-44" transform="translate(828.421875 0)"/>
      <use xlink:href="#DejaVuSans-46" transform="translate(889.703125 0)"/>
      <use xlink:href="#DejaVuSans-57" transform="translate(944.6875 0)"/>
      <use xlink:href="#DejaVuSans-4c" transform="translate(983.890625 0)"/>
      <use xlink:href="#DejaVuSans-51" transform="translate(1011.671875 0)"/>
      <use xlink:href="#DejaVuSans-4a" transform="translate(1075.046875 0)"/>
      <use xlink:href="#DejaVuSans-c" transform="translate(1138.53125 0)"/>
      <use xlink:href="#DejaVuSans-3" transform="translate(1177.546875 0)"/>
      <use xlink:href="#DejaVuSans-45" transform="translate(1209.328125 0)"/>
      <use xlink:href="#DejaVuSans-55" transform="translate(1272.8125 0)"/>
      <use xlink:href="#DejaVuSans-44" transform="translate(1313.921875 0)"/>
      <use xlink:href="#DejaVuSans-51" transform="translate(1375.203125 0)"/>
      <use xlink:href="#DejaVuSans-46" transform="translate(1438.578125 0)"/>
      <use xlink:href="#DejaVuSans-4b" transform="translate(1493.5625 0)"/>
     </g>
    </g>
    <g id="line2d_76">
     <g>
      <use xlink:href="#m95a19238cb" x="267.30625" y="148.756484" style="fill: #d62728; stroke: #d62728"/>
     </g>
    </g>
    <g id="text_21">
     <!-- extinction turning point -->
     <g transform="translate(285.30625 152.256484) scale(0.1 -0.1)">
      <defs>
       <path id="DejaVuSans-5b" d="M 3513 3500
L 2247 1797
L 3578 0
L 2900 0
L 1881 1375
L 863 0
L 184 0
L 1544 1831
L 300 3500
L 978 3500
L 1906 2253
L 2834 3500
L 3513 3500
z
" transform="scale(0.015625)"/>
      </defs>
      <use xlink:href="#DejaVuSans-48"/>
      <use xlink:href="#DejaVuSans-5b" transform="translate(59.78125 0)"/>
      <use xlink:href="#DejaVuSans-57" transform="translate(118.96875 0)"/>
      <use xlink:href="#DejaVuSans-4c" transform="translate(158.171875 0)"/>
      <use xlink:href="#DejaVuSans-51" transform="translate(185.953125 0)"/>
      <use xlink:href="#DejaVuSans-46" transform="translate(249.328125 0)"/>
      <use xlink:href="#DejaVuSans-57" transform="translate(304.3125 0)"/>
      <use xlink:href="#DejaVuSans-4c" transform="translate(343.515625 0)"/>
      <use xlink:href="#DejaVuSans-52" transform="translate(371.296875 0)"/>
      <use xlink:href="#DejaVuSans-51" transform="translate(432.484375 0)"/>
      <use xlink:href="#DejaVuSans-3" transform="translate(495.859375 0)"/>
      <use xlink:href="#DejaVuSans-57" transform="translate(527.640625 0)"/>
      <use xlink:href="#DejaVuSans-58" transform="translate(566.84375 0)"/>
      <use xlink:href="#DejaVuSans-55" transform="translate(630.21875 0)"/>
      <use xlink:href="#DejaVuSans-51" transform="translate(669.578125 0)"/>
      <use xlink:href="#DejaVuSans-4c" transform="translate(732.953125 0)"/>
      <use xlink:href="#DejaVuSans-51" transform="translate(760.734375 0)"/>
      <use xlink:href="#DejaVuSans-4a" transform="translate(824.109375 0)"/>
      <use xlink:href="#DejaVuSans-3" transform="translate(887.59375 0)"/>
      <use xlink:href="#DejaVuSans-53" transform="translate(919.375 0)"/>
      <use xlink:href="#DejaVuSans-52" transform="translate(982.859375 0)"/>
      <use xlink:href="#DejaVuSans-4c" transform="translate(1044.046875 0)"/>
      <use xlink:href="#DejaVuSans-51" transform="translate(1071.828125 0)"/>
      <use xlink:href="#DejaVuSans-57" transform="translate(1135.203125 0)"/>
     </g>
    </g>
    <g id="line2d_77">
     <g>
      <use xlink:href="#m01ad2ce5df" x="267.30625" y="163.757266" style="fill: #2ca02c; stroke: #2ca02c; stroke-linejoin: miter"/>
     </g>
    </g>
    <g id="text_22">
     <!-- ignition turning point -->
     <g transform="translate(285.30625 167.257266) scale(0.1 -0.1)">
      <use xlink:href="#DejaVuSans-4c"/>
      <use xlink:href="#DejaVuSans-4a" transform="translate(27.78125 0)"/>
      <use xlink:href="#DejaVuSans-51" transform="translate(91.265625 0)"/>
      <use xlink:href="#DejaVuSans-4c" transform="translate(154.640625 0)"/>
      <use xlink:href="#DejaVuSans-57" transform="translate(182.421875 0)"/>
      <use xlink:href="#DejaVuSans-4c" transform="translate(221.625 0)"/>
      <use xlink:href="#DejaVuSans-52" transform="translate(249.40625 0)"/>
      <use xlink:href="#DejaVuSans-51" transform="translate(310.59375 0)"/>
      <use xlink:href="#DejaVuSans-3" transform="translate(373.96875 0)"/>
      <use xlink:href="#DejaVuSans-57" transform="translate(405.75 0)"/>
      <use xlink:href="#DejaVuSans-58" transform="translate(444.953125 0)"/>
      <use xlink:href="#DejaVuSans-55" transform="translate(508.328125 0)"/>
      <use xlink:href="#DejaVuSans-51" transform="translate(547.6875 0)"/>
      <use xlink:href="#DejaVuSans-4c" transform="translate(611.0625 0)"/>
      <use xlink:href="#DejaVuSans-51" transform="translate(638.84375 0)"/>
      <use xlink:href="#DejaVuSans-4a" transform="translate(702.21875 0)"/>
      <use xlink:href="#DejaVuSans-3" transform="translate(765.703125 0)"/>
      <use xlink:href="#DejaVuSans-53" transform="translate(797.484375 0)"/>
      <use xlink:href="#DejaVuSans-52" transform="translate(860.96875 0)"/>
      <use xlink:href="#DejaVuSans-4c" transform="translate(922.15625 0)"/>
      <use xlink:href="#DejaVuSans-51" transform="translate(949.9375 0)"/>
      <use xlink:href="#DejaVuSans-57" transform="translate(1013.3125 0)"/>
     </g>
    </g>
   </g>
  </g>
 </g>
 <defs>
  <clipPath id="p922ed19594">
   <rect x="58.042344" y="10.8" width="391.957656" height="247.715312"/>
  </clipPath>
 </defs>
</svg>
