<?xml version="1.0" encoding="utf-8" standalone="no"?>
<!DOCTYPE svg PUBLIC "-//W3C//DTD SVG 1.1//EN"
  "http://www.w3.org/Graphics/SVG/1.1/DTD/svg11.dtd">
<svg xmlns:xlink="http://www.w3.org/1999/xlink" width="460.8pt" height="302.4pt" viewBox="0 0 460.8 302.4" xmlns="http://www.w3.org/2000/svg" version="1.1">
 <metadata>
  <rdf:RDF xmlns:dc="http://purl.org/dc/elements/1.1/" xmlns:cc="http://creativecommons.org/ns#" xmlns:rdf="http://www.w3.org/1999/02/22-rdf-syntax-ns#">
   <cc:Work>
    <dc:type rdf:resource="http://purl.org/dc/dcmitype/StillImage"/>
    <dc:date>2026-06-28T13:19:18.242515</dc:date>
    <dc:format>image/svg+xml</dc:format>
    <dc:creator>
     <cc:Agent>
      <dc:title>Matplotlib v3.11.0, https://matplotlib.org/</dc:title>
     </cc:Agent>
    </dc:creator>
   </cc:Work>
  </rdf:RDF>
 </metadata>
 <defs>
  <style type="text/css">*{stroke-linejoin: round; stroke-linecap: butt}</style>
 </defs>
 <g id="figure_1">
  <g id="patch_1">
   <path d="M 0 302.4
L 460.8 302.4
L 460.8 0
L 0 0
z
" style="fill: #ffffff"/>
  </g>
  <g id="axes_1">
   <g id="patch_2">
    <path d="M 58.042344 258.515312
L 450 258.515312
L 450 10.8
L 58.042344 10.8
z
" style="fill: #ffffff"/>
   </g>
   <g id="matplotlib.axis_1">
    <g id="xtick_1">
     <g id="line2d_1">
      <defs>
       <path id="maf735fdacf" d="M 0 0
L 0 3.5
" style="stroke: #000000; stroke-width: 0.8"/>
      </defs>
      <g>
       <use xlink:href="#maf735fdacf" x="84.772924" y="258.515312" style="stroke: #000000; stroke-width: 0.8"/>
      </g>
     </g>
     <g id="text_1">
      <!-- $\mathdefault{10^{-4}}$ -->
      <g transform="translate(73.022924 274.815313) scale(0.1 -0.1)">
       <defs>
        <path id="DejaVuSans-14" d="M 794 531
L 1825 531
L 1825 4091
L 703 3866
L 703 4441
L 1819 4666
L 2450 4666
L 2450 531
L 3481 531
L 3481 0
L 794 0
L 794 531
z
" transform="scale(0.015625)"/>
        <path id="DejaVuSans-13" d="M 2034 4250
Q 1547 4250 1301 3770
Q 1056 3291 1056 2328
Q 1056 1369 1301 889
Q 1547 409 2034 409
Q 2525 409 2770 889
Q 3016 1369 3016 2328
Q 3016 3291 2770 3770
Q 2525 4250 2034 4250
z
M 2034 4750
Q 2819 4750 3233 4129
Q 3647 3509 3647 2328
Q 3647 1150 3233 529
Q 2819 -91 2034 -91
Q 1250 -91 836 529
Q 422 1150 422 2328
Q 422 3509 836 4129
Q 1250 4750 2034 4750
z
" transform="scale(0.015625)"/>
        <path id="DejaVuSans-c9c" d="M 678 2272
L 4684 2272
L 4684 1741
L 678 1741
L 678 2272
z
" transform="scale(0.015625)"/>
        <path id="DejaVuSans-17" d="M 2419 4116
L 825 1625
L 2419 1625
L 2419 4116
z
M 2253 4666
L 3047 4666
L 3047 1625
L 3713 1625
L 3713 1100
L 3047 1100
L 3047 0
L 2419 0
L 2419 1100
L 313 1100
L 313 1709
L 2253 4666
z
" transform="scale(0.015625)"/>
       </defs>
       <use xlink:href="#DejaVuSans-14" transform="translate(0 0.665625)"/>
       <use xlink:href="#DejaVuSans-13" transform="translate(63.623047 0.665625)"/>
       <use xlink:href="#DejaVuSans-c9c" transform="translate(128.203125 41.965625) scale(0.7)"/>
       <use xlink:href="#DejaVuSans-17" transform="translate(186.855469 41.965625) scale(0.7)"/>
      </g>
     </g>
    </g>
    <g id="xtick_2">
     <g id="line2d_2">
      <g>
       <use xlink:href="#maf735fdacf" x="171.625629" y="258.515312" style="stroke: #000000; stroke-width: 0.8"/>
      </g>
     </g>
     <g id="text_2">
      <!-- $\mathdefault{10^{-3}}$ -->
      <g transform="translate(159.875629 274.915313) scale(0.1 -0.1)">
       <defs>
        <path id="DejaVuSans-16" d="M 2597 2516
Q 3050 2419 3304 2112
Q 3559 1806 3559 1356
Q 3559 666 3084 287
Q 2609 -91 1734 -91
Q 1441 -91 1130 -33
Q 819 25 488 141
L 488 750
Q 750 597 1062 519
Q 1375 441 1716 441
Q 2309 441 2620 675
Q 2931 909 2931 1356
Q 2931 1769 2642 2001
Q 2353 2234 1838 2234
L 1294 2234
L 1294 2753
L 1863 2753
Q 2328 2753 2575 2939
Q 2822 3125 2822 3475
Q 2822 3834 2567 4026
Q 2313 4219 1838 4219
Q 1578 4219 1281 4162
Q 984 4106 628 3988
L 628 4550
Q 988 4650 1302 4700
Q 1616 4750 1894 4750
Q 2613 4750 3031 4423
Q 3450 4097 3450 3541
Q 3450 3153 3228 2886
Q 3006 2619 2597 2516
z
" transform="scale(0.015625)"/>
       </defs>
       <use xlink:href="#DejaVuSans-14" transform="translate(0 0.746875)"/>
       <use xlink:href="#DejaVuSans-13" transform="translate(63.623047 0.746875)"/>
       <use xlink:href="#DejaVuSans-c9c" transform="translate(128.203125 42.046875) scale(0.7)"/>
       <use xlink:href="#DejaVuSans-16" transform="translate(186.855469 42.046875) scale(0.7)"/>
      </g>
     </g>
    </g>
    <g id="xtick_3">
     <g id="line2d_3">
      <g>
       <use xlink:href="#maf735fdacf" x="258.478333" y="258.515312" style="stroke: #000000; stroke-width: 0.8"/>
      </g>
     </g>
     <g id="text_3">
      <!-- $\mathdefault{10^{-2}}$ -->
      <g transform="translate(246.728333 274.915313) scale(0.1 -0.1)">
       <defs>
        <path id="DejaVuSans-15" d="M 1228 531
L 3431 531
L 3431 0
L 469 0
L 469 531
Q 828 903 1448 1529
Q 2069 2156 2228 2338
Q 2531 2678 2651 2914
Q 2772 3150 2772 3378
Q 2772 3750 2511 3984
Q 2250 4219 1831 4219
Q 1534 4219 1204 4116
Q 875 4013 500 3803
L 500 4441
Q 881 4594 1212 4672
Q 1544 4750 1819 4750
Q 2544 4750 2975 4387
Q 3406 4025 3406 3419
Q 3406 3131 3298 2873
Q 3191 2616 2906 2266
Q 2828 2175 2409 1742
Q 1991 1309 1228 531
z
" transform="scale(0.015625)"/>
       </defs>
       <use xlink:href="#DejaVuSans-14" transform="translate(0 0.746875)"/>
       <use xlink:href="#DejaVuSans-13" transform="translate(63.623047 0.746875)"/>
       <use xlink:href="#DejaVuSans-c9c" transform="translate(128.203125 42.046875) scale(0.7)"/>
       <use xlink:href="#DejaVuSans-15" transform="translate(186.855469 42.046875) scale(0.7)"/>
      </g>
     </g>
    </g>
    <g id="xtick_4">
     <g id="line2d_4">
      <g>
       <use xlink:href="#maf735fdacf" x="345.331038" y="258.515312" style="stroke: #000000; stroke-width: 0.8"/>
      </g>
     </g>
     <g id="text_4">
      <!-- $\mathdefault{10^{-1}}$ -->
      <g transform="translate(333.581038 274.815313) scale(0.1 -0.1)">
       <use xlink:href="#DejaVuSans-14" transform="translate(0 0.665625)"/>
       <use xlink:href="#DejaVuSans-13" transform="translate(63.623047 0.665625)"/>
       <use xlink:href="#DejaVuSans-c9c" transform="translate(128.203125 41.965625) scale(0.7)"/>
       <use xlink:href="#DejaVuSans-14" transform="translate(186.855469 41.965625) scale(0.7)"/>
      </g>
     </g>
    </g>
    <g id="xtick_5">
     <g id="line2d_5">
      <g>
       <use xlink:href="#maf735fdacf" x="432.183743" y="258.515312" style="stroke: #000000; stroke-width: 0.8"/>
      </g>
     </g>
     <g id="text_5">
      <!-- $\mathdefault{10^{0}}$ -->
      <g transform="translate(423.383743 274.915313) scale(0.1 -0.1)">
       <use xlink:href="#DejaVuSans-14" transform="translate(0 0.746875)"/>
       <use xlink:href="#DejaVuSans-13" transform="translate(63.623047 0.746875)"/>
       <use xlink:href="#DejaVuSans-13" transform="translate(128.203125 42.046875) scale(0.7)"/>
      </g>
     </g>
    </g>
    <g id="xtick_6">
     <g id="line2d_6">
      <defs>
       <path id="m3e8b033ef0" d="M 0 0
L 0 2
" style="stroke: #000000; stroke-width: 0.6"/>
      </defs>
      <g>
       <use xlink:href="#m3e8b033ef0" x="58.627655" y="258.515312" style="stroke: #000000; stroke-width: 0.6"/>
      </g>
     </g>
    </g>
    <g id="xtick_7">
     <g id="line2d_7">
      <g>
       <use xlink:href="#m3e8b033ef0" x="65.50476" y="258.515312" style="stroke: #000000; stroke-width: 0.6"/>
      </g>
     </g>
    </g>
    <g id="xtick_8">
     <g id="line2d_8">
      <g>
       <use xlink:href="#m3e8b033ef0" x="71.31927" y="258.515312" style="stroke: #000000; stroke-width: 0.6"/>
      </g>
     </g>
    </g>
    <g id="xtick_9">
     <g id="line2d_9">
      <g>
       <use xlink:href="#m3e8b033ef0" x="76.356027" y="258.515312" style="stroke: #000000; stroke-width: 0.6"/>
      </g>
     </g>
    </g>
    <g id="xtick_10">
     <g id="line2d_10">
      <g>
       <use xlink:href="#m3e8b033ef0" x="80.798762" y="258.515312" style="stroke: #000000; stroke-width: 0.6"/>
      </g>
     </g>
    </g>
    <g id="xtick_11">
     <g id="line2d_11">
      <g>
       <use xlink:href="#m3e8b033ef0" x="110.918193" y="258.515312" style="stroke: #000000; stroke-width: 0.6"/>
      </g>
     </g>
    </g>
    <g id="xtick_12">
     <g id="line2d_12">
      <g>
       <use xlink:href="#m3e8b033ef0" x="126.212195" y="258.515312" style="stroke: #000000; stroke-width: 0.6"/>
      </g>
     </g>
    </g>
    <g id="xtick_13">
     <g id="line2d_13">
      <g>
       <use xlink:href="#m3e8b033ef0" x="137.063463" y="258.515312" style="stroke: #000000; stroke-width: 0.6"/>
      </g>
     </g>
    </g>
    <g id="xtick_14">
     <g id="line2d_14">
      <g>
       <use xlink:href="#m3e8b033ef0" x="145.480359" y="258.515312" style="stroke: #000000; stroke-width: 0.6"/>
      </g>
     </g>
    </g>
    <g id="xtick_15">
     <g id="line2d_15">
      <g>
       <use xlink:href="#m3e8b033ef0" x="152.357465" y="258.515312" style="stroke: #000000; stroke-width: 0.6"/>
      </g>
     </g>
    </g>
    <g id="xtick_16">
     <g id="line2d_16">
      <g>
       <use xlink:href="#m3e8b033ef0" x="158.171975" y="258.515312" style="stroke: #000000; stroke-width: 0.6"/>
      </g>
     </g>
    </g>
    <g id="xtick_17">
     <g id="line2d_17">
      <g>
       <use xlink:href="#m3e8b033ef0" x="163.208732" y="258.515312" style="stroke: #000000; stroke-width: 0.6"/>
      </g>
     </g>
    </g>
    <g id="xtick_18">
     <g id="line2d_18">
      <g>
       <use xlink:href="#m3e8b033ef0" x="167.651467" y="258.515312" style="stroke: #000000; stroke-width: 0.6"/>
      </g>
     </g>
    </g>
    <g id="xtick_19">
     <g id="line2d_19">
      <g>
       <use xlink:href="#m3e8b033ef0" x="197.770898" y="258.515312" style="stroke: #000000; stroke-width: 0.6"/>
      </g>
     </g>
    </g>
    <g id="xtick_20">
     <g id="line2d_20">
      <g>
       <use xlink:href="#m3e8b033ef0" x="213.0649" y="258.515312" style="stroke: #000000; stroke-width: 0.6"/>
      </g>
     </g>
    </g>
    <g id="xtick_21">
     <g id="line2d_21">
      <g>
       <use xlink:href="#m3e8b033ef0" x="223.916167" y="258.515312" style="stroke: #000000; stroke-width: 0.6"/>
      </g>
     </g>
    </g>
    <g id="xtick_22">
     <g id="line2d_22">
      <g>
       <use xlink:href="#m3e8b033ef0" x="232.333064" y="258.515312" style="stroke: #000000; stroke-width: 0.6"/>
      </g>
     </g>
    </g>
    <g id="xtick_23">
     <g id="line2d_23">
      <g>
       <use xlink:href="#m3e8b033ef0" x="239.21017" y="258.515312" style="stroke: #000000; stroke-width: 0.6"/>
      </g>
     </g>
    </g>
    <g id="xtick_24">
     <g id="line2d_24">
      <g>
       <use xlink:href="#m3e8b033ef0" x="245.024679" y="258.515312" style="stroke: #000000; stroke-width: 0.6"/>
      </g>
     </g>
    </g>
    <g id="xtick_25">
     <g id="line2d_25">
      <g>
       <use xlink:href="#m3e8b033ef0" x="250.061437" y="258.515312" style="stroke: #000000; stroke-width: 0.6"/>
      </g>
     </g>
    </g>
    <g id="xtick_26">
     <g id="line2d_26">
      <g>
       <use xlink:href="#m3e8b033ef0" x="254.504172" y="258.515312" style="stroke: #000000; stroke-width: 0.6"/>
      </g>
     </g>
    </g>
    <g id="xtick_27">
     <g id="line2d_27">
      <g>
       <use xlink:href="#m3e8b033ef0" x="284.623603" y="258.515312" style="stroke: #000000; stroke-width: 0.6"/>
      </g>
     </g>
    </g>
    <g id="xtick_28">
     <g id="line2d_28">
      <g>
       <use xlink:href="#m3e8b033ef0" x="299.917605" y="258.515312" style="stroke: #000000; stroke-width: 0.6"/>
      </g>
     </g>
    </g>
    <g id="xtick_29">
     <g id="line2d_29">
      <g>
       <use xlink:href="#m3e8b033ef0" x="310.768872" y="258.515312" style="stroke: #000000; stroke-width: 0.6"/>
      </g>
     </g>
    </g>
    <g id="xtick_30">
     <g id="line2d_30">
      <g>
       <use xlink:href="#m3e8b033ef0" x="319.185769" y="258.515312" style="stroke: #000000; stroke-width: 0.6"/>
      </g>
     </g>
    </g>
    <g id="xtick_31">
     <g id="line2d_31">
      <g>
       <use xlink:href="#m3e8b033ef0" x="326.062874" y="258.515312" style="stroke: #000000; stroke-width: 0.6"/>
      </g>
     </g>
    </g>
    <g id="xtick_32">
     <g id="line2d_32">
      <g>
       <use xlink:href="#m3e8b033ef0" x="331.877384" y="258.515312" style="stroke: #000000; stroke-width: 0.6"/>
      </g>
     </g>
    </g>
    <g id="xtick_33">
     <g id="line2d_33">
      <g>
       <use xlink:href="#m3e8b033ef0" x="336.914141" y="258.515312" style="stroke: #000000; stroke-width: 0.6"/>
      </g>
     </g>
    </g>
    <g id="xtick_34">
     <g id="line2d_34">
      <g>
       <use xlink:href="#m3e8b033ef0" x="341.356876" y="258.515312" style="stroke: #000000; stroke-width: 0.6"/>
      </g>
     </g>
    </g>
    <g id="xtick_35">
     <g id="line2d_35">
      <g>
       <use xlink:href="#m3e8b033ef0" x="371.476308" y="258.515312" style="stroke: #000000; stroke-width: 0.6"/>
      </g>
     </g>
    </g>
    <g id="xtick_36">
     <g id="line2d_36">
      <g>
       <use xlink:href="#m3e8b033ef0" x="386.77031" y="258.515312" style="stroke: #000000; stroke-width: 0.6"/>
      </g>
     </g>
    </g>
    <g id="xtick_37">
     <g id="line2d_37">
      <g>
       <use xlink:href="#m3e8b033ef0" x="397.621577" y="258.515312" style="stroke: #000000; stroke-width: 0.6"/>
      </g>
     </g>
    </g>
    <g id="xtick_38">
     <g id="line2d_38">
      <g>
       <use xlink:href="#m3e8b033ef0" x="406.038474" y="258.515312" style="stroke: #000000; stroke-width: 0.6"/>
      </g>
     </g>
    </g>
    <g id="xtick_39">
     <g id="line2d_39">
      <g>
       <use xlink:href="#m3e8b033ef0" x="412.915579" y="258.515312" style="stroke: #000000; stroke-width: 0.6"/>
      </g>
     </g>
    </g>
    <g id="xtick_40">
     <g id="line2d_40">
      <g>
       <use xlink:href="#m3e8b033ef0" x="418.730089" y="258.515312" style="stroke: #000000; stroke-width: 0.6"/>
      </g>
     </g>
    </g>
    <g id="xtick_41">
     <g id="line2d_41">
      <g>
       <use xlink:href="#m3e8b033ef0" x="423.766846" y="258.515312" style="stroke: #000000; stroke-width: 0.6"/>
      </g>
     </g>
    </g>
    <g id="xtick_42">
     <g id="line2d_42">
      <g>
       <use xlink:href="#m3e8b033ef0" x="428.209581" y="258.515312" style="stroke: #000000; stroke-width: 0.6"/>
      </g>
     </g>
    </g>
    <g id="text_6">
     <!-- residence time  $\tau$  (s) -->
     <g transform="translate(200.971172 288.917656) scale(0.1 -0.1)">
      <defs>
       <path id="DejaVuSans-55" d="M 2631 2963
Q 2534 3019 2420 3045
Q 2306 3072 2169 3072
Q 1681 3072 1420 2755
Q 1159 2438 1159 1844
L 1159 0
L 581 0
L 581 3500
L 1159 3500
L 1159 2956
Q 1341 3275 1631 3429
Q 1922 3584 2338 3584
Q 2397 3584 2469 3576
Q 2541 3569 2628 3553
L 2631 2963
z
" transform="scale(0.015625)"/>
       <path id="DejaVuSans-48" d="M 3597 1894
L 3597 1613
L 953 1613
Q 991 1019 1311 708
Q 1631 397 2203 397
Q 2534 397 2845 478
Q 3156 559 3463 722
L 3463 178
Q 3153 47 2828 -22
Q 2503 -91 2169 -91
Q 1331 -91 842 396
Q 353 884 353 1716
Q 353 2575 817 3079
Q 1281 3584 2069 3584
Q 2775 3584 3186 3129
Q 3597 2675 3597 1894
z
M 3022 2063
Q 3016 2534 2758 2815
Q 2500 3097 2075 3097
Q 1594 3097 1305 2825
Q 1016 2553 972 2059
L 3022 2063
z
" transform="scale(0.015625)"/>
       <path id="DejaVuSans-56" d="M 2834 3397
L 2834 2853
Q 2591 2978 2328 3040
Q 2066 3103 1784 3103
Q 1356 3103 1142 2972
Q 928 2841 928 2578
Q 928 2378 1081 2264
Q 1234 2150 1697 2047
L 1894 2003
Q 2506 1872 2764 1633
Q 3022 1394 3022 966
Q 3022 478 2636 193
Q 2250 -91 1575 -91
Q 1294 -91 989 -36
Q 684 19 347 128
L 347 722
Q 666 556 975 473
Q 1284 391 1588 391
Q 1994 391 2212 530
Q 2431 669 2431 922
Q 2431 1156 2273 1281
Q 2116 1406 1581 1522
L 1381 1569
Q 847 1681 609 1914
Q 372 2147 372 2553
Q 372 3047 722 3315
Q 1072 3584 1716 3584
Q 2034 3584 2315 3537
Q 2597 3491 2834 3397
z
" transform="scale(0.015625)"/>
       <path id="DejaVuSans-4c" d="M 603 3500
L 1178 3500
L 1178 0
L 603 0
L 603 3500
z
M 603 4863
L 1178 4863
L 1178 4134
L 603 4134
L 603 4863
z
" transform="scale(0.015625)"/>
       <path id="DejaVuSans-47" d="M 2906 2969
L 2906 4863
L 3481 4863
L 3481 0
L 2906 0
L 2906 525
Q 2725 213 2448 61
Q 2172 -91 1784 -91
Q 1150 -91 751 415
Q 353 922 353 1747
Q 353 2572 751 3078
Q 1150 3584 1784 3584
Q 2172 3584 2448 3432
Q 2725 3281 2906 2969
z
M 947 1747
Q 947 1113 1208 752
Q 1469 391 1925 391
Q 2381 391 2643 752
Q 2906 1113 2906 1747
Q 2906 2381 2643 2742
Q 2381 3103 1925 3103
Q 1469 3103 1208 2742
Q 947 2381 947 1747
z
" transform="scale(0.015625)"/>
       <path id="DejaVuSans-51" d="M 3513 2113
L 3513 0
L 2938 0
L 2938 2094
Q 2938 2591 2744 2837
Q 2550 3084 2163 3084
Q 1697 3084 1428 2787
Q 1159 2491 1159 1978
L 1159 0
L 581 0
L 581 3500
L 1159 3500
L 1159 2956
Q 1366 3272 1645 3428
Q 1925 3584 2291 3584
Q 2894 3584 3203 3211
Q 3513 2838 3513 2113
z
" transform="scale(0.015625)"/>
       <path id="DejaVuSans-46" d="M 3122 3366
L 3122 2828
Q 2878 2963 2633 3030
Q 2388 3097 2138 3097
Q 1578 3097 1268 2742
Q 959 2388 959 1747
Q 959 1106 1268 751
Q 1578 397 2138 397
Q 2388 397 2633 464
Q 2878 531 3122 666
L 3122 134
Q 2881 22 2623 -34
Q 2366 -91 2075 -91
Q 1284 -91 818 406
Q 353 903 353 1747
Q 353 2603 823 3093
Q 1294 3584 2113 3584
Q 2378 3584 2631 3529
Q 2884 3475 3122 3366
z
" transform="scale(0.015625)"/>
       <path id="DejaVuSans-3" transform="scale(0.015625)"/>
       <path id="DejaVuSans-57" d="M 1172 4494
L 1172 3500
L 2356 3500
L 2356 3053
L 1172 3053
L 1172 1153
Q 1172 725 1289 603
Q 1406 481 1766 481
L 2356 481
L 2356 0
L 1766 0
Q 1100 0 847 248
Q 594 497 594 1153
L 594 3053
L 172 3053
L 172 3500
L 594 3500
L 594 4494
L 1172 4494
z
" transform="scale(0.015625)"/>
       <path id="DejaVuSans-50" d="M 3328 2828
Q 3544 3216 3844 3400
Q 4144 3584 4550 3584
Q 5097 3584 5394 3201
Q 5691 2819 5691 2113
L 5691 0
L 5113 0
L 5113 2094
Q 5113 2597 4934 2840
Q 4756 3084 4391 3084
Q 3944 3084 3684 2787
Q 3425 2491 3425 1978
L 3425 0
L 2847 0
L 2847 2094
Q 2847 2600 2669 2842
Q 2491 3084 2119 3084
Q 1678 3084 1418 2786
Q 1159 2488 1159 1978
L 1159 0
L 581 0
L 581 3500
L 1159 3500
L 1159 2956
Q 1356 3278 1631 3431
Q 1906 3584 2284 3584
Q 2666 3584 2933 3390
Q 3200 3197 3328 2828
z
" transform="scale(0.015625)"/>
       <path id="DejaVuSans-Oblique-358" d="M 2103 638
Q 2188 488 2525 488
L 2800 488
L 2706 0
L 2363 0
Q 1800 0 1600 300
Q 1403 606 1534 1269
L 1856 2925
L 541 2925
L 653 3500
L 3881 3500
L 3769 2925
L 2444 2925
L 2113 1234
Q 2025 781 2103 638
z
" transform="scale(0.015625)"/>
       <path id="DejaVuSans-b" d="M 1984 4856
Q 1566 4138 1362 3434
Q 1159 2731 1159 2009
Q 1159 1288 1364 580
Q 1569 -128 1984 -844
L 1484 -844
Q 1016 -109 783 600
Q 550 1309 550 2009
Q 550 2706 781 3412
Q 1013 4119 1484 4856
L 1984 4856
z
" transform="scale(0.015625)"/>
       <path id="DejaVuSans-c" d="M 513 4856
L 1013 4856
Q 1481 4119 1714 3412
Q 1947 2706 1947 2009
Q 1947 1309 1714 600
Q 1481 -109 1013 -844
L 513 -844
Q 928 -128 1133 580
Q 1338 1288 1338 2009
Q 1338 2731 1133 3434
Q 928 4138 513 4856
z
" transform="scale(0.015625)"/>
      </defs>
      <use xlink:href="#DejaVuSans-55" transform="translate(0 0.015625)"/>
      <use xlink:href="#DejaVuSans-48" transform="translate(39.113281 0.015625)"/>
      <use xlink:href="#DejaVuSans-56" transform="translate(100.636719 0.015625)"/>
      <use xlink:href="#DejaVuSans-4c" transform="translate(152.736328 0.015625)"/>
      <use xlink:href="#DejaVuSans-47" transform="translate(180.519531 0.015625)"/>
      <use xlink:href="#DejaVuSans-48" transform="translate(243.996094 0.015625)"/>
      <use xlink:href="#DejaVuSans-51" transform="translate(305.519531 0.015625)"/>
      <use xlink:href="#DejaVuSans-46" transform="translate(368.898438 0.015625)"/>
      <use xlink:href="#DejaVuSans-48" transform="translate(423.878906 0.015625)"/>
      <use xlink:href="#DejaVuSans-3" transform="translate(485.402344 0.015625)"/>
      <use xlink:href="#DejaVuSans-57" transform="translate(517.189453 0.015625)"/>
      <use xlink:href="#DejaVuSans-4c" transform="translate(556.398438 0.015625)"/>
      <use xlink:href="#DejaVuSans-50" transform="translate(584.181641 0.015625)"/>
      <use xlink:href="#DejaVuSans-48" transform="translate(681.59375 0.015625)"/>
      <use xlink:href="#DejaVuSans-3" transform="translate(743.117188 0.015625)"/>
      <use xlink:href="#DejaVuSans-3" transform="translate(774.904297 0.015625)"/>
      <use xlink:href="#DejaVuSans-Oblique-358" transform="translate(806.691406 0.015625)"/>
      <use xlink:href="#DejaVuSans-3" transform="translate(866.896484 0.015625)"/>
      <use xlink:href="#DejaVuSans-3" transform="translate(898.683594 0.015625)"/>
      <use xlink:href="#DejaVuSans-b" transform="translate(930.470703 0.015625)"/>
      <use xlink:href="#DejaVuSans-56" transform="translate(969.484375 0.015625)"/>
      <use xlink:href="#DejaVuSans-c" transform="translate(1021.583984 0.015625)"/>
     </g>
    </g>
   </g>
   <g id="matplotlib.axis_2">
    <g id="ytick_1">
     <g id="line2d_43">
      <defs>
       <path id="m4a265dae47" d="M 0 0
L -3.5 0
" style="stroke: #000000; stroke-width: 0.8"/>
      </defs>
      <g>
       <use xlink:href="#m4a265dae47" x="58.042344" y="255.180059" style="stroke: #000000; stroke-width: 0.8"/>
      </g>
     </g>
     <g id="text_7">
      <!-- 1500 -->
      <g transform="translate(25.592344 258.978887) scale(0.1 -0.1)">
       <defs>
        <path id="DejaVuSans-18" d="M 691 4666
L 3169 4666
L 3169 4134
L 1269 4134
L 1269 2991
Q 1406 3038 1543 3061
Q 1681 3084 1819 3084
Q 2600 3084 3056 2656
Q 3513 2228 3513 1497
Q 3513 744 3044 326
Q 2575 -91 1722 -91
Q 1428 -91 1123 -41
Q 819 9 494 109
L 494 744
Q 775 591 1075 516
Q 1375 441 1709 441
Q 2250 441 2565 725
Q 2881 1009 2881 1497
Q 2881 1984 2565 2268
Q 2250 2553 1709 2553
Q 1456 2553 1204 2497
Q 953 2441 691 2322
L 691 4666
z
" transform="scale(0.015625)"/>
       </defs>
       <use xlink:href="#DejaVuSans-14"/>
       <use xlink:href="#DejaVuSans-18" transform="translate(63.625 0)"/>
       <use xlink:href="#DejaVuSans-13" transform="translate(127.25 0)"/>
       <use xlink:href="#DejaVuSans-13" transform="translate(190.875 0)"/>
      </g>
     </g>
    </g>
    <g id="ytick_2">
     <g id="line2d_44">
      <g>
       <use xlink:href="#m4a265dae47" x="58.042344" y="222.97135" style="stroke: #000000; stroke-width: 0.8"/>
      </g>
     </g>
     <g id="text_8">
      <!-- 1600 -->
      <g transform="translate(25.592344 226.770178) scale(0.1 -0.1)">
       <defs>
        <path id="DejaVuSans-19" d="M 2113 2584
Q 1688 2584 1439 2293
Q 1191 2003 1191 1497
Q 1191 994 1439 701
Q 1688 409 2113 409
Q 2538 409 2786 701
Q 3034 994 3034 1497
Q 3034 2003 2786 2293
Q 2538 2584 2113 2584
z
M 3366 4563
L 3366 3988
Q 3128 4100 2886 4159
Q 2644 4219 2406 4219
Q 1781 4219 1451 3797
Q 1122 3375 1075 2522
Q 1259 2794 1537 2939
Q 1816 3084 2150 3084
Q 2853 3084 3261 2657
Q 3669 2231 3669 1497
Q 3669 778 3244 343
Q 2819 -91 2113 -91
Q 1303 -91 875 529
Q 447 1150 447 2328
Q 447 3434 972 4092
Q 1497 4750 2381 4750
Q 2619 4750 2861 4703
Q 3103 4656 3366 4563
z
" transform="scale(0.015625)"/>
       </defs>
       <use xlink:href="#DejaVuSans-14"/>
       <use xlink:href="#DejaVuSans-19" transform="translate(63.625 0)"/>
       <use xlink:href="#DejaVuSans-13" transform="translate(127.25 0)"/>
       <use xlink:href="#DejaVuSans-13" transform="translate(190.875 0)"/>
      </g>
     </g>
    </g>
    <g id="ytick_3">
     <g id="line2d_45">
      <g>
       <use xlink:href="#m4a265dae47" x="58.042344" y="190.762641" style="stroke: #000000; stroke-width: 0.8"/>
      </g>
     </g>
     <g id="text_9">
      <!-- 1700 -->
      <g transform="translate(25.592344 194.56147) scale(0.1 -0.1)">
       <defs>
        <path id="DejaVuSans-1a" d="M 525 4666
L 3525 4666
L 3525 4397
L 1831 0
L 1172 0
L 2766 4134
L 525 4134
L 525 4666
z
" transform="scale(0.015625)"/>
       </defs>
       <use xlink:href="#DejaVuSans-14"/>
       <use xlink:href="#DejaVuSans-1a" transform="translate(63.625 0)"/>
       <use xlink:href="#DejaVuSans-13" transform="translate(127.25 0)"/>
       <use xlink:href="#DejaVuSans-13" transform="translate(190.875 0)"/>
      </g>
     </g>
    </g>
    <g id="ytick_4">
     <g id="line2d_46">
      <g>
       <use xlink:href="#m4a265dae47" x="58.042344" y="158.553933" style="stroke: #000000; stroke-width: 0.8"/>
      </g>
     </g>
     <g id="text_10">
      <!-- 1800 -->
      <g transform="translate(25.592344 162.352761) scale(0.1 -0.1)">
       <defs>
        <path id="DejaVuSans-1b" d="M 2034 2216
Q 1584 2216 1326 1975
Q 1069 1734 1069 1313
Q 1069 891 1326 650
Q 1584 409 2034 409
Q 2484 409 2743 651
Q 3003 894 3003 1313
Q 3003 1734 2745 1975
Q 2488 2216 2034 2216
z
M 1403 2484
Q 997 2584 770 2862
Q 544 3141 544 3541
Q 544 4100 942 4425
Q 1341 4750 2034 4750
Q 2731 4750 3128 4425
Q 3525 4100 3525 3541
Q 3525 3141 3298 2862
Q 3072 2584 2669 2484
Q 3125 2378 3379 2068
Q 3634 1759 3634 1313
Q 3634 634 3220 271
Q 2806 -91 2034 -91
Q 1263 -91 848 271
Q 434 634 434 1313
Q 434 1759 690 2068
Q 947 2378 1403 2484
z
M 1172 3481
Q 1172 3119 1398 2916
Q 1625 2713 2034 2713
Q 2441 2713 2670 2916
Q 2900 3119 2900 3481
Q 2900 3844 2670 4047
Q 2441 4250 2034 4250
Q 1625 4250 1398 4047
Q 1172 3844 1172 3481
z
" transform="scale(0.015625)"/>
       </defs>
       <use xlink:href="#DejaVuSans-14"/>
       <use xlink:href="#DejaVuSans-1b" transform="translate(63.625 0)"/>
       <use xlink:href="#DejaVuSans-13" transform="translate(127.25 0)"/>
       <use xlink:href="#DejaVuSans-13" transform="translate(190.875 0)"/>
      </g>
     </g>
    </g>
    <g id="ytick_5">
     <g id="line2d_47">
      <g>
       <use xlink:href="#m4a265dae47" x="58.042344" y="126.345224" style="stroke: #000000; stroke-width: 0.8"/>
      </g>
     </g>
     <g id="text_11">
      <!-- 1900 -->
      <g transform="translate(25.592344 130.144052) scale(0.1 -0.1)">
       <defs>
        <path id="DejaVuSans-1c" d="M 703 97
L 703 672
Q 941 559 1184 500
Q 1428 441 1663 441
Q 2288 441 2617 861
Q 2947 1281 2994 2138
Q 2813 1869 2534 1725
Q 2256 1581 1919 1581
Q 1219 1581 811 2004
Q 403 2428 403 3163
Q 403 3881 828 4315
Q 1253 4750 1959 4750
Q 2769 4750 3195 4129
Q 3622 3509 3622 2328
Q 3622 1225 3098 567
Q 2575 -91 1691 -91
Q 1453 -91 1209 -44
Q 966 3 703 97
z
M 1959 2075
Q 2384 2075 2632 2365
Q 2881 2656 2881 3163
Q 2881 3666 2632 3958
Q 2384 4250 1959 4250
Q 1534 4250 1286 3958
Q 1038 3666 1038 3163
Q 1038 2656 1286 2365
Q 1534 2075 1959 2075
z
" transform="scale(0.015625)"/>
       </defs>
       <use xlink:href="#DejaVuSans-14"/>
       <use xlink:href="#DejaVuSans-1c" transform="translate(63.625 0)"/>
       <use xlink:href="#DejaVuSans-13" transform="translate(127.25 0)"/>
       <use xlink:href="#DejaVuSans-13" transform="translate(190.875 0)"/>
      </g>
     </g>
    </g>
    <g id="ytick_6">
     <g id="line2d_48">
      <g>
       <use xlink:href="#m4a265dae47" x="58.042344" y="94.136516" style="stroke: #000000; stroke-width: 0.8"/>
      </g>
     </g>
     <g id="text_12">
      <!-- 2000 -->
      <g transform="translate(25.592344 97.935344) scale(0.1 -0.1)">
       <use xlink:href="#DejaVuSans-15"/>
       <use xlink:href="#DejaVuSans-13" transform="translate(63.625 0)"/>
       <use xlink:href="#DejaVuSans-13" transform="translate(127.25 0)"/>
       <use xlink:href="#DejaVuSans-13" transform="translate(190.875 0)"/>
      </g>
     </g>
    </g>
    <g id="ytick_7">
     <g id="line2d_49">
      <g>
       <use xlink:href="#m4a265dae47" x="58.042344" y="61.927807" style="stroke: #000000; stroke-width: 0.8"/>
      </g>
     </g>
     <g id="text_13">
      <!-- 2100 -->
      <g transform="translate(25.592344 65.726635) scale(0.1 -0.1)">
       <use xlink:href="#DejaVuSans-15"/>
       <use xlink:href="#DejaVuSans-14" transform="translate(63.625 0)"/>
       <use xlink:href="#DejaVuSans-13" transform="translate(127.25 0)"/>
       <use xlink:href="#DejaVuSans-13" transform="translate(190.875 0)"/>
      </g>
     </g>
    </g>
    <g id="ytick_8">
     <g id="line2d_50">
      <g>
       <use xlink:href="#m4a265dae47" x="58.042344" y="29.719098" style="stroke: #000000; stroke-width: 0.8"/>
      </g>
     </g>
     <g id="text_14">
      <!-- 2200 -->
      <g transform="translate(25.592344 33.517926) scale(0.1 -0.1)">
       <use xlink:href="#DejaVuSans-15"/>
       <use xlink:href="#DejaVuSans-15" transform="translate(63.625 0)"/>
       <use xlink:href="#DejaVuSans-13" transform="translate(127.25 0)"/>
       <use xlink:href="#DejaVuSans-13" transform="translate(190.875 0)"/>
      </g>
     </g>
    </g>
    <g id="text_15">
     <!-- response temperature  $T$  (K) -->
     <g transform="translate(19.19 207.007656) rotate(-90) scale(0.1 -0.1)">
      <defs>
       <path id="DejaVuSans-53" d="M 1159 525
L 1159 -1331
L 581 -1331
L 581 3500
L 1159 3500
L 1159 2969
Q 1341 3281 1617 3432
Q 1894 3584 2278 3584
Q 2916 3584 3314 3078
Q 3713 2572 3713 1747
Q 3713 922 3314 415
Q 2916 -91 2278 -91
Q 1894 -91 1617 61
Q 1341 213 1159 525
z
M 3116 1747
Q 3116 2381 2855 2742
Q 2594 3103 2138 3103
Q 1681 3103 1420 2742
Q 1159 2381 1159 1747
Q 1159 1113 1420 752
Q 1681 391 2138 391
Q 2594 391 2855 752
Q 3116 1113 3116 1747
z
" transform="scale(0.015625)"/>
       <path id="DejaVuSans-52" d="M 1959 3097
Q 1497 3097 1228 2736
Q 959 2375 959 1747
Q 959 1119 1226 758
Q 1494 397 1959 397
Q 2419 397 2687 759
Q 2956 1122 2956 1747
Q 2956 2369 2687 2733
Q 2419 3097 1959 3097
z
M 1959 3584
Q 2709 3584 3137 3096
Q 3566 2609 3566 1747
Q 3566 888 3137 398
Q 2709 -91 1959 -91
Q 1206 -91 779 398
Q 353 888 353 1747
Q 353 2609 779 3096
Q 1206 3584 1959 3584
z
" transform="scale(0.015625)"/>
       <path id="DejaVuSans-44" d="M 2194 1759
Q 1497 1759 1228 1600
Q 959 1441 959 1056
Q 959 750 1161 570
Q 1363 391 1709 391
Q 2188 391 2477 730
Q 2766 1069 2766 1631
L 2766 1759
L 2194 1759
z
M 3341 1997
L 3341 0
L 2766 0
L 2766 531
Q 2569 213 2275 61
Q 1981 -91 1556 -91
Q 1019 -91 701 211
Q 384 513 384 1019
Q 384 1609 779 1909
Q 1175 2209 1959 2209
L 2766 2209
L 2766 2266
Q 2766 2663 2505 2880
Q 2244 3097 1772 3097
Q 1472 3097 1187 3025
Q 903 2953 641 2809
L 641 3341
Q 956 3463 1253 3523
Q 1550 3584 1831 3584
Q 2591 3584 2966 3190
Q 3341 2797 3341 1997
z
" transform="scale(0.015625)"/>
       <path id="DejaVuSans-58" d="M 544 1381
L 544 3500
L 1119 3500
L 1119 1403
Q 1119 906 1312 657
Q 1506 409 1894 409
Q 2359 409 2629 706
Q 2900 1003 2900 1516
L 2900 3500
L 3475 3500
L 3475 0
L 2900 0
L 2900 538
Q 2691 219 2414 64
Q 2138 -91 1772 -91
Q 1169 -91 856 284
Q 544 659 544 1381
z
M 1991 3584
L 1991 3584
z
" transform="scale(0.015625)"/>
       <path id="DejaVuSans-Oblique-37" d="M 378 4666
L 4325 4666
L 4225 4134
L 2559 4134
L 1759 0
L 1125 0
L 1925 4134
L 275 4134
L 378 4666
z
" transform="scale(0.015625)"/>
       <path id="DejaVuSans-2e" d="M 628 4666
L 1259 4666
L 1259 2694
L 3353 4666
L 4166 4666
L 1850 2491
L 4331 0
L 3500 0
L 1259 2247
L 1259 0
L 628 0
L 628 4666
z
" transform="scale(0.015625)"/>
      </defs>
      <use xlink:href="#DejaVuSans-55" transform="translate(0 0.125)"/>
      <use xlink:href="#DejaVuSans-48" transform="translate(39.113281 0.125)"/>
      <use xlink:href="#DejaVuSans-56" transform="translate(100.636719 0.125)"/>
      <use xlink:href="#DejaVuSans-53" transform="translate(152.736328 0.125)"/>
      <use xlink:href="#DejaVuSans-52" transform="translate(216.212891 0.125)"/>
      <use xlink:href="#DejaVuSans-51" transform="translate(277.394531 0.125)"/>
      <use xlink:href="#DejaVuSans-56" transform="translate(340.773438 0.125)"/>
      <use xlink:href="#DejaVuSans-48" transform="translate(392.873047 0.125)"/>
      <use xlink:href="#DejaVuSans-3" transform="translate(454.396484 0.125)"/>
      <use xlink:href="#DejaVuSans-57" transform="translate(486.183594 0.125)"/>
      <use xlink:href="#DejaVuSans-48" transform="translate(525.392578 0.125)"/>
      <use xlink:href="#DejaVuSans-50" transform="translate(586.916016 0.125)"/>
      <use xlink:href="#DejaVuSans-53" transform="translate(684.328125 0.125)"/>
      <use xlink:href="#DejaVuSans-48" transform="translate(747.804688 0.125)"/>
      <use xlink:href="#DejaVuSans-55" transform="translate(809.328125 0.125)"/>
      <use xlink:href="#DejaVuSans-44" transform="translate(850.441406 0.125)"/>
      <use xlink:href="#DejaVuSans-57" transform="translate(911.720703 0.125)"/>
      <use xlink:href="#DejaVuSans-58" transform="translate(950.929688 0.125)"/>
      <use xlink:href="#DejaVuSans-55" transform="translate(1014.308594 0.125)"/>
      <use xlink:href="#DejaVuSans-48" transform="translate(1053.421875 0.125)"/>
      <use xlink:href="#DejaVuSans-3" transform="translate(1114.945312 0.125)"/>
      <use xlink:href="#DejaVuSans-3" transform="translate(1146.732422 0.125)"/>
      <use xlink:href="#DejaVuSans-Oblique-37" transform="translate(1178.519531 0.125)"/>
      <use xlink:href="#DejaVuSans-3" transform="translate(1239.603516 0.125)"/>
      <use xlink:href="#DejaVuSans-3" transform="translate(1271.390625 0.125)"/>
      <use xlink:href="#DejaVuSans-b" transform="translate(1303.177734 0.125)"/>
      <use xlink:href="#DejaVuSans-2e" transform="translate(1342.191406 0.125)"/>
      <use xlink:href="#DejaVuSans-c" transform="translate(1407.767578 0.125)"/>
     </g>
    </g>
   </g>
   <g id="line2d_51">
    <path d="M 432.183743 22.060735
L 406.038474 22.668647
L 402.266537 22.797957
L 397.740227 22.97119
L 392.30867 23.207884
L 385.790833 23.538567
L 377.969486 24.012012
L 368.583986 24.707626
L 357.321624 25.756396
L 343.8073 27.375174
L 328.721883 29.71917
L 313.637997 32.701157
L 298.556233 36.377823
L 283.477201 40.786935
L 268.401499 45.948533
L 253.329683 51.867079
L 238.262226 58.533429
L 223.199499 65.926014
L 208.141736 74.011296
L 193.089021 82.744224
L 178.041279 92.070105
L 162.99832 101.93032
L 147.959989 112.276375
L 132.926524 123.1017
L 117.899446 134.514745
L 102.884079 146.932929
L 87.900575 161.852726
L 80.455372 172.293574
L 76.113458 184.232634
L 75.862152 186.824614
L 75.858601 188.925016
" clip-path="url(#pf0fa02cd62)" style="fill: none; stroke: #d62728; stroke-width: 2; stroke-linecap: square"/>
   </g>
   <g id="line2d_52">
    <path d="M 75.858601 188.925016
L 76.031262 190.944307
L 76.278359 192.459993
L 76.592449 193.835004
L 76.983875 195.177378
L 77.464449 196.527937
L 78.049643 197.912121
L 78.758849 199.348882
L 79.615826 200.85394
L 80.649379 202.441452
L 81.894262 204.125099
L 83.392301 205.919
L 85.193764 207.838784
L 87.359017 209.903077
L 89.960519 212.135865
L 93.085211 214.570353
L 96.837381 217.255334
L 101.342087 220.265573
L 106.749234 223.718153
L 113.23842 227.796604
L 121.024691 232.782252
L 130.365382 239.085214
L 141.568419 247.255526
" clip-path="url(#pf0fa02cd62)" style="fill: none; stroke-dasharray: 5.55,2.4; stroke-dashoffset: 0; stroke: #999999; stroke-width: 1.5"/>
   </g>
   <g id="line2d_53">
    <defs>
     <path id="m3fd3905a40" d="M 0 2
C 0.530406 2 1.03916 1.789267 1.414214 1.414214
C 1.789267 1.03916 2 0.530406 2 0
C 2 -0.530406 1.789267 -1.03916 1.414214 -1.414214
C 1.03916 -1.789267 0.530406 -2 0 -2
C -0.530406 -2 -1.03916 -1.789267 -1.414214 -1.414214
C -1.789267 -1.03916 -2 -0.530406 -2 0
C -2 0.530406 -1.789267 1.03916 -1.414214 1.414214
C -1.03916 1.789267 -0.530406 2 0 2
z
" style="stroke: #1f77b4"/>
    </defs>
    <g clip-path="url(#pf0fa02cd62)">
     <use xlink:href="#m3fd3905a40" x="432.183743" y="22.059787" style="fill-opacity: 0; stroke: #1f77b4"/>
     <use xlink:href="#m3fd3905a40" x="423.505346" y="22.216022" style="fill-opacity: 0; stroke: #1f77b4"/>
     <use xlink:href="#m3fd3905a40" x="414.830293" y="22.413819" style="fill-opacity: 0; stroke: #1f77b4"/>
     <use xlink:href="#m3fd3905a40" x="406.16139" y="22.66456" style="fill-opacity: 0; stroke: #1f77b4"/>
     <use xlink:href="#m3fd3905a40" x="397.502421" y="22.980718" style="fill-opacity: 0; stroke: #1f77b4"/>
     <use xlink:href="#m3fd3905a40" x="388.858944" y="23.375893" style="fill-opacity: 0; stroke: #1f77b4"/>
     <use xlink:href="#m3fd3905a40" x="380.238937" y="23.864905" style="fill-opacity: 0; stroke: #1f77b4"/>
     <use xlink:href="#m3fd3905a40" x="371.65355" y="24.462805" style="fill-opacity: 0; stroke: #1f77b4"/>
     <use xlink:href="#m3fd3905a40" x="363.117501" y="25.185136" style="fill-opacity: 0; stroke: #1f77b4"/>
     <use xlink:href="#m3fd3905a40" x="354.64988" y="26.043263" style="fill-opacity: 0; stroke: #1f77b4"/>
     <use xlink:href="#m3fd3905a40" x="346.271818" y="27.047843" style="fill-opacity: 0; stroke: #1f77b4"/>
     <use xlink:href="#m3fd3905a40" x="338.007793" y="28.205109" style="fill-opacity: 0; stroke: #1f77b4"/>
     <use xlink:href="#m3fd3905a40" x="329.882532" y="29.517027" style="fill-opacity: 0; stroke: #1f77b4"/>
     <use xlink:href="#m3fd3905a40" x="321.919307" y="30.981267" style="fill-opacity: 0; stroke: #1f77b4"/>
     <use xlink:href="#m3fd3905a40" x="314.138026" y="32.591677" style="fill-opacity: 0; stroke: #1f77b4"/>
     <use xlink:href="#m3fd3905a40" x="306.553868" y="34.33917" style="fill-opacity: 0; stroke: #1f77b4"/>
     <use xlink:href="#m3fd3905a40" x="299.176614" y="36.212773" style="fill-opacity: 0; stroke: #1f77b4"/>
     <use xlink:href="#m3fd3905a40" x="292.010719" y="38.200618" style="fill-opacity: 0; stroke: #1f77b4"/>
     <use xlink:href="#m3fd3905a40" x="285.055948" y="40.290773" style="fill-opacity: 0; stroke: #1f77b4"/>
     <use xlink:href="#m3fd3905a40" x="278.308299" y="42.471818" style="fill-opacity: 0; stroke: #1f77b4"/>
     <use xlink:href="#m3fd3905a40" x="271.760968" y="44.733207" style="fill-opacity: 0; stroke: #1f77b4"/>
     <use xlink:href="#m3fd3905a40" x="265.405322" y="47.06542" style="fill-opacity: 0; stroke: #1f77b4"/>
     <use xlink:href="#m3fd3905a40" x="259.231605" y="49.460003" style="fill-opacity: 0; stroke: #1f77b4"/>
     <use xlink:href="#m3fd3905a40" x="253.22951" y="51.909552" style="fill-opacity: 0; stroke: #1f77b4"/>
     <use xlink:href="#m3fd3905a40" x="247.38864" y="54.407592" style="fill-opacity: 0; stroke: #1f77b4"/>
     <use xlink:href="#m3fd3905a40" x="241.698776" y="56.948495" style="fill-opacity: 0; stroke: #1f77b4"/>
     <use xlink:href="#m3fd3905a40" x="236.15005" y="59.527369" style="fill-opacity: 0; stroke: #1f77b4"/>
     <use xlink:href="#m3fd3905a40" x="230.73307" y="62.139959" style="fill-opacity: 0; stroke: #1f77b4"/>
     <use xlink:href="#m3fd3905a40" x="225.438948" y="64.782555" style="fill-opacity: 0; stroke: #1f77b4"/>
     <use xlink:href="#m3fd3905a40" x="220.259346" y="67.451923" style="fill-opacity: 0; stroke: #1f77b4"/>
     <use xlink:href="#m3fd3905a40" x="215.18646" y="70.145224" style="fill-opacity: 0; stroke: #1f77b4"/>
     <use xlink:href="#m3fd3905a40" x="210.21301" y="72.859971" style="fill-opacity: 0; stroke: #1f77b4"/>
     <use xlink:href="#m3fd3905a40" x="205.332203" y="75.593972" style="fill-opacity: 0; stroke: #1f77b4"/>
     <use xlink:href="#m3fd3905a40" x="200.537718" y="78.345298" style="fill-opacity: 0; stroke: #1f77b4"/>
     <use xlink:href="#m3fd3905a40" x="195.823683" y="81.112241" style="fill-opacity: 0; stroke: #1f77b4"/>
     <use xlink:href="#m3fd3905a40" x="191.184626" y="83.893302" style="fill-opacity: 0; stroke: #1f77b4"/>
     <use xlink:href="#m3fd3905a40" x="186.615494" y="86.686873" style="fill-opacity: 0; stroke: #1f77b4"/>
     <use xlink:href="#m3fd3905a40" x="182.111257" y="89.492564" style="fill-opacity: 0; stroke: #1f77b4"/>
     <use xlink:href="#m3fd3905a40" x="177.668265" y="92.308642" style="fill-opacity: 0; stroke: #1f77b4"/>
     <use xlink:href="#m3fd3905a40" x="173.282212" y="95.134428" style="fill-opacity: 0; stroke: #1f77b4"/>
     <use xlink:href="#m3fd3905a40" x="168.949433" y="97.969194" style="fill-opacity: 0; stroke: #1f77b4"/>
     <use xlink:href="#m3fd3905a40" x="164.666651" y="100.812318" style="fill-opacity: 0; stroke: #1f77b4"/>
     <use xlink:href="#m3fd3905a40" x="160.430942" y="103.663314" style="fill-opacity: 0; stroke: #1f77b4"/>
     <use xlink:href="#m3fd3905a40" x="156.239745" y="106.521837" style="fill-opacity: 0; stroke: #1f77b4"/>
     <use xlink:href="#m3fd3905a40" x="152.090903" y="109.387674" style="fill-opacity: 0; stroke: #1f77b4"/>
     <use xlink:href="#m3fd3905a40" x="147.982689" y="112.260775" style="fill-opacity: 0; stroke: #1f77b4"/>
     <use xlink:href="#m3fd3905a40" x="143.913856" y="115.141261" style="fill-opacity: 0; stroke: #1f77b4"/>
     <use xlink:href="#m3fd3905a40" x="139.883682" y="118.029567" style="fill-opacity: 0; stroke: #1f77b4"/>
     <use xlink:href="#m3fd3905a40" x="135.892186" y="120.925858" style="fill-opacity: 0; stroke: #1f77b4"/>
     <use xlink:href="#m3fd3905a40" x="131.939656" y="123.83126" style="fill-opacity: 0; stroke: #1f77b4"/>
     <use xlink:href="#m3fd3905a40" x="128.027604" y="126.746725" style="fill-opacity: 0; stroke: #1f77b4"/>
     <use xlink:href="#m3fd3905a40" x="124.158326" y="129.673624" style="fill-opacity: 0; stroke: #1f77b4"/>
     <use xlink:href="#m3fd3905a40" x="120.335137" y="132.613728" style="fill-opacity: 0; stroke: #1f77b4"/>
     <use xlink:href="#m3fd3905a40" x="116.562592" y="135.569212" style="fill-opacity: 0; stroke: #1f77b4"/>
     <use xlink:href="#m3fd3905a40" x="112.846595" y="138.542788" style="fill-opacity: 0; stroke: #1f77b4"/>
     <use xlink:href="#m3fd3905a40" x="109.194661" y="141.537695" style="fill-opacity: 0; stroke: #1f77b4"/>
     <use xlink:href="#m3fd3905a40" x="105.616079" y="144.557861" style="fill-opacity: 0; stroke: #1f77b4"/>
     <use xlink:href="#m3fd3905a40" x="102.122106" y="147.608013" style="fill-opacity: 0; stroke: #1f77b4"/>
     <use xlink:href="#m3fd3905a40" x="98.726287" y="150.693765" style="fill-opacity: 0; stroke: #1f77b4"/>
     <use xlink:href="#m3fd3905a40" x="95.444539" y="153.821945" style="fill-opacity: 0; stroke: #1f77b4"/>
     <use xlink:href="#m3fd3905a40" x="92.295485" y="157.000916" style="fill-opacity: 0; stroke: #1f77b4"/>
     <use xlink:href="#m3fd3905a40" x="89.300592" y="160.242732" style="fill-opacity: 0; stroke: #1f77b4"/>
     <use xlink:href="#m3fd3905a40" x="86.485672" y="163.558052" style="fill-opacity: 0; stroke: #1f77b4"/>
     <use xlink:href="#m3fd3905a40" x="83.877194" y="166.970117" style="fill-opacity: 0; stroke: #1f77b4"/>
     <use xlink:href="#m3fd3905a40" x="81.508243" y="170.510495" style="fill-opacity: 0; stroke: #1f77b4"/>
     <use xlink:href="#m3fd3905a40" x="79.416518" y="174.241542" style="fill-opacity: 0; stroke: #1f77b4"/>
     <use xlink:href="#m3fd3905a40" x="77.648617" y="178.304912" style="fill-opacity: 0; stroke: #1f77b4"/>
     <use xlink:href="#m3fd3905a40" x="76.265164" y="183.312838" style="fill-opacity: 0; stroke: #1f77b4"/>
     <use xlink:href="#m3fd3905a40" x="75.877263" y="186.51689" style="fill-opacity: 0; stroke: #1f77b4"/>
    </g>
   </g>
   <g id="patch_3">
    <path d="M 58.042344 258.515313
L 58.042344 10.8
" style="fill: none; stroke: #000000; stroke-width: 0.8; stroke-linejoin: miter; stroke-linecap: square"/>
   </g>
   <g id="patch_4">
    <path d="M 450 258.515313
L 450 10.8
" style="fill: none; stroke: #000000; stroke-width: 0.8; stroke-linejoin: miter; stroke-linecap: square"/>
   </g>
   <g id="patch_5">
    <path d="M 58.042344 258.515312
L 450 258.515312
" style="fill: none; stroke: #000000; stroke-width: 0.8; stroke-linejoin: miter; stroke-linecap: square"/>
   </g>
   <g id="patch_6">
    <path d="M 58.042344 10.8
L 450 10.8
" style="fill: none; stroke: #000000; stroke-width: 0.8; stroke-linejoin: miter; stroke-linecap: square"/>
   </g>
   <g id="legend_1">
    <g id="patch_7">
     <path d="M 266.88875 254.515312
L 444.4 254.515312
Q 446 254.515312 446 252.915312
L 446 217.713437
Q 446 216.113438 444.4 216.113438
L 266.88875 216.113438
Q 265.28875 216.113438 265.28875 217.713437
L 265.28875 252.915312
Q 265.28875 254.515312 266.88875 254.515312
z
" style="fill: #ffffff; opacity: 0.8; stroke: #cccccc; stroke-linejoin: miter"/>
    </g>
    <g id="line2d_54">
     <path d="M 268.48875 222.592187
L 276.48875 222.592187
L 284.48875 222.592187
" style="fill: none; stroke: #d62728; stroke-width: 2; stroke-linecap: square"/>
    </g>
    <g id="text_16">
     <!-- pyMARS continuation (upper branch) -->
     <g transform="translate(290.88875 225.392188) scale(0.08 -0.08)">
      <defs>
       <path id="DejaVuSans-5c" d="M 2059 -325
Q 1816 -950 1584 -1140
Q 1353 -1331 966 -1331
L 506 -1331
L 506 -850
L 844 -850
Q 1081 -850 1212 -737
Q 1344 -625 1503 -206
L 1606 56
L 191 3500
L 800 3500
L 1894 763
L 2988 3500
L 3597 3500
L 2059 -325
z
" transform="scale(0.015625)"/>
       <path id="DejaVuSans-30" d="M 628 4666
L 1569 4666
L 2759 1491
L 3956 4666
L 4897 4666
L 4897 0
L 4281 0
L 4281 4097
L 3078 897
L 2444 897
L 1241 4097
L 1241 0
L 628 0
L 628 4666
z
" transform="scale(0.015625)"/>
       <path id="DejaVuSans-24" d="M 2188 4044
L 1331 1722
L 3047 1722
L 2188 4044
z
M 1831 4666
L 2547 4666
L 4325 0
L 3669 0
L 3244 1197
L 1141 1197
L 716 0
L 50 0
L 1831 4666
z
" transform="scale(0.015625)"/>
       <path id="DejaVuSans-35" d="M 2841 2188
Q 3044 2119 3236 1894
Q 3428 1669 3622 1275
L 4263 0
L 3584 0
L 2988 1197
Q 2756 1666 2539 1819
Q 2322 1972 1947 1972
L 1259 1972
L 1259 0
L 628 0
L 628 4666
L 2053 4666
Q 2853 4666 3247 4331
Q 3641 3997 3641 3322
Q 3641 2881 3436 2590
Q 3231 2300 2841 2188
z
M 1259 4147
L 1259 2491
L 2053 2491
Q 2509 2491 2742 2702
Q 2975 2913 2975 3322
Q 2975 3731 2742 3939
Q 2509 4147 2053 4147
L 1259 4147
z
" transform="scale(0.015625)"/>
       <path id="DejaVuSans-36" d="M 3425 4513
L 3425 3897
Q 3066 4069 2747 4153
Q 2428 4238 2131 4238
Q 1616 4238 1336 4038
Q 1056 3838 1056 3469
Q 1056 3159 1242 3001
Q 1428 2844 1947 2747
L 2328 2669
Q 3034 2534 3370 2195
Q 3706 1856 3706 1288
Q 3706 609 3251 259
Q 2797 -91 1919 -91
Q 1588 -91 1214 -16
Q 841 59 441 206
L 441 856
Q 825 641 1194 531
Q 1563 422 1919 422
Q 2459 422 2753 634
Q 3047 847 3047 1241
Q 3047 1584 2836 1778
Q 2625 1972 2144 2069
L 1759 2144
Q 1053 2284 737 2584
Q 422 2884 422 3419
Q 422 4038 858 4394
Q 1294 4750 2059 4750
Q 2388 4750 2728 4690
Q 3069 4631 3425 4513
z
" transform="scale(0.015625)"/>
       <path id="DejaVuSans-45" d="M 3116 1747
Q 3116 2381 2855 2742
Q 2594 3103 2138 3103
Q 1681 3103 1420 2742
Q 1159 2381 1159 1747
Q 1159 1113 1420 752
Q 1681 391 2138 391
Q 2594 391 2855 752
Q 3116 1113 3116 1747
z
M 1159 2969
Q 1341 3281 1617 3432
Q 1894 3584 2278 3584
Q 2916 3584 3314 3078
Q 3713 2572 3713 1747
Q 3713 922 3314 415
Q 2916 -91 2278 -91
Q 1894 -91 1617 61
Q 1341 213 1159 525
L 1159 0
L 581 0
L 581 4863
L 1159 4863
L 1159 2969
z
" transform="scale(0.015625)"/>
       <path id="DejaVuSans-4b" d="M 3513 2113
L 3513 0
L 2938 0
L 2938 2094
Q 2938 2591 2744 2837
Q 2550 3084 2163 3084
Q 1697 3084 1428 2787
Q 1159 2491 1159 1978
L 1159 0
L 581 0
L 581 4863
L 1159 4863
L 1159 2956
Q 1366 3272 1645 3428
Q 1925 3584 2291 3584
Q 2894 3584 3203 3211
Q 3513 2838 3513 2113
z
" transform="scale(0.015625)"/>
      </defs>
      <use xlink:href="#DejaVuSans-53"/>
      <use xlink:href="#DejaVuSans-5c" transform="translate(63.484375 0)"/>
      <use xlink:href="#DejaVuSans-30" transform="translate(122.671875 0)"/>
      <use xlink:href="#DejaVuSans-24" transform="translate(208.953125 0)"/>
      <use xlink:href="#DejaVuSans-35" transform="translate(277.359375 0)"/>
      <use xlink:href="#DejaVuSans-36" transform="translate(346.84375 0)"/>
      <use xlink:href="#DejaVuSans-3" transform="translate(410.328125 0)"/>
      <use xlink:href="#DejaVuSans-46" transform="translate(442.109375 0)"/>
      <use xlink:href="#DejaVuSans-52" transform="translate(497.09375 0)"/>
      <use xlink:href="#DejaVuSans-51" transform="translate(558.28125 0)"/>
      <use xlink:href="#DejaVuSans-57" transform="translate(621.65625 0)"/>
      <use xlink:href="#DejaVuSans-4c" transform="translate(660.859375 0)"/>
      <use xlink:href="#DejaVuSans-51" transform="translate(688.640625 0)"/>
      <use xlink:href="#DejaVuSans-58" transform="translate(752.015625 0)"/>
      <use xlink:href="#DejaVuSans-44" transform="translate(815.390625 0)"/>
      <use xlink:href="#DejaVuSans-57" transform="translate(876.671875 0)"/>
      <use xlink:href="#DejaVuSans-4c" transform="translate(915.875 0)"/>
      <use xlink:href="#DejaVuSans-52" transform="translate(943.65625 0)"/>
      <use xlink:href="#DejaVuSans-51" transform="translate(1004.84375 0)"/>
      <use xlink:href="#DejaVuSans-3" transform="translate(1068.21875 0)"/>
      <use xlink:href="#DejaVuSans-b" transform="translate(1100 0)"/>
      <use xlink:href="#DejaVuSans-58" transform="translate(1139.015625 0)"/>
      <use xlink:href="#DejaVuSans-53" transform="translate(1202.390625 0)"/>
      <use xlink:href="#DejaVuSans-53" transform="translate(1265.875 0)"/>
      <use xlink:href="#DejaVuSans-48" transform="translate(1329.359375 0)"/>
      <use xlink:href="#DejaVuSans-55" transform="translate(1390.890625 0)"/>
      <use xlink:href="#DejaVuSans-3" transform="translate(1432 0)"/>
      <use xlink:href="#DejaVuSans-45" transform="translate(1463.78125 0)"/>
      <use xlink:href="#DejaVuSans-55" transform="translate(1527.265625 0)"/>
      <use xlink:href="#DejaVuSans-44" transform="translate(1568.375 0)"/>
      <use xlink:href="#DejaVuSans-51" transform="translate(1629.65625 0)"/>
      <use xlink:href="#DejaVuSans-46" transform="translate(1693.03125 0)"/>
      <use xlink:href="#DejaVuSans-4b" transform="translate(1748.015625 0)"/>
      <use xlink:href="#DejaVuSans-c" transform="translate(1811.390625 0)"/>
     </g>
    </g>
    <g id="line2d_55">
     <path d="M 268.48875 234.592812
L 276.48875 234.592812
L 284.48875 234.592812
" style="fill: none; stroke-dasharray: 5.55,2.4; stroke-dashoffset: 0; stroke: #999999; stroke-width: 1.5"/>
    </g>
    <g id="text_17">
     <!-- pyMARS continuation (middle branch) -->
     <g transform="translate(290.88875 237.392812) scale(0.08 -0.08)">
      <defs>
       <path id="DejaVuSans-4f" d="M 603 4863
L 1178 4863
L 1178 0
L 603 0
L 603 4863
z
" transform="scale(0.015625)"/>
      </defs>
      <use xlink:href="#DejaVuSans-53"/>
      <use xlink:href="#DejaVuSans-5c" transform="translate(63.484375 0)"/>
      <use xlink:href="#DejaVuSans-30" transform="translate(122.671875 0)"/>
      <use xlink:href="#DejaVuSans-24" transform="translate(208.953125 0)"/>
      <use xlink:href="#DejaVuSans-35" transform="translate(277.359375 0)"/>
      <use xlink:href="#DejaVuSans-36" transform="translate(346.84375 0)"/>
      <use xlink:href="#DejaVuSans-3" transform="translate(410.328125 0)"/>
      <use xlink:href="#DejaVuSans-46" transform="translate(442.109375 0)"/>
      <use xlink:href="#DejaVuSans-52" transform="translate(497.09375 0)"/>
      <use xlink:href="#DejaVuSans-51" transform="translate(558.28125 0)"/>
      <use xlink:href="#DejaVuSans-57" transform="translate(621.65625 0)"/>
      <use xlink:href="#DejaVuSans-4c" transform="translate(660.859375 0)"/>
      <use xlink:href="#DejaVuSans-51" transform="translate(688.640625 0)"/>
      <use xlink:href="#DejaVuSans-58" transform="translate(752.015625 0)"/>
      <use xlink:href="#DejaVuSans-44" transform="translate(815.390625 0)"/>
      <use xlink:href="#DejaVuSans-57" transform="translate(876.671875 0)"/>
      <use xlink:href="#DejaVuSans-4c" transform="translate(915.875 0)"/>
      <use xlink:href="#DejaVuSans-52" transform="translate(943.65625 0)"/>
      <use xlink:href="#DejaVuSans-51" transform="translate(1004.84375 0)"/>
      <use xlink:href="#DejaVuSans-3" transform="translate(1068.21875 0)"/>
      <use xlink:href="#DejaVuSans-b" transform="translate(1100 0)"/>
      <use xlink:href="#DejaVuSans-50" transform="translate(1139.015625 0)"/>
      <use xlink:href="#DejaVuSans-4c" transform="translate(1236.421875 0)"/>
      <use xlink:href="#DejaVuSans-47" transform="translate(1264.203125 0)"/>
      <use xlink:href="#DejaVuSans-47" transform="translate(1327.6875 0)"/>
      <use xlink:href="#DejaVuSans-4f" transform="translate(1391.171875 0)"/>
      <use xlink:href="#DejaVuSans-48" transform="translate(1418.953125 0)"/>
      <use xlink:href="#DejaVuSans-3" transform="translate(1480.484375 0)"/>
      <use xlink:href="#DejaVuSans-45" transform="translate(1512.265625 0)"/>
      <use xlink:href="#DejaVuSans-55" transform="translate(1575.75 0)"/>
      <use xlink:href="#DejaVuSans-44" transform="translate(1616.859375 0)"/>
      <use xlink:href="#DejaVuSans-51" transform="translate(1678.140625 0)"/>
      <use xlink:href="#DejaVuSans-46" transform="translate(1741.515625 0)"/>
      <use xlink:href="#DejaVuSans-4b" transform="translate(1796.5 0)"/>
      <use xlink:href="#DejaVuSans-c" transform="translate(1859.875 0)"/>
     </g>
    </g>
    <g id="line2d_56">
     <g>
      <use xlink:href="#m3fd3905a40" x="276.48875" y="246.593437" style="fill-opacity: 0; stroke: #1f77b4"/>
     </g>
    </g>
    <g id="text_18">
     <!-- MARS (Fortran/Chemkin) -->
     <g transform="translate(290.88875 249.393438) scale(0.08 -0.08)">
      <defs>
       <path id="DejaVuSans-29" d="M 628 4666
L 3309 4666
L 3309 4134
L 1259 4134
L 1259 2759
L 3109 2759
L 3109 2228
L 1259 2228
L 1259 0
L 628 0
L 628 4666
z
" transform="scale(0.015625)"/>
       <path id="DejaVuSans-12" d="M 1625 4666
L 2156 4666
L 531 -594
L 0 -594
L 1625 4666
z
" transform="scale(0.015625)"/>
       <path id="DejaVuSans-26" d="M 4122 4306
L 4122 3641
Q 3803 3938 3442 4084
Q 3081 4231 2675 4231
Q 1875 4231 1450 3742
Q 1025 3253 1025 2328
Q 1025 1406 1450 917
Q 1875 428 2675 428
Q 3081 428 3442 575
Q 3803 722 4122 1019
L 4122 359
Q 3791 134 3420 21
Q 3050 -91 2638 -91
Q 1578 -91 968 557
Q 359 1206 359 2328
Q 359 3453 968 4101
Q 1578 4750 2638 4750
Q 3056 4750 3426 4639
Q 3797 4528 4122 4306
z
" transform="scale(0.015625)"/>
       <path id="DejaVuSans-4e" d="M 581 4863
L 1159 4863
L 1159 1991
L 2875 3500
L 3609 3500
L 1753 1863
L 3688 0
L 2938 0
L 1159 1709
L 1159 0
L 581 0
L 581 4863
z
" transform="scale(0.015625)"/>
      </defs>
      <use xlink:href="#DejaVuSans-30"/>
      <use xlink:href="#DejaVuSans-24" transform="translate(86.28125 0)"/>
      <use xlink:href="#DejaVuSans-35" transform="translate(154.6875 0)"/>
      <use xlink:href="#DejaVuSans-36" transform="translate(224.171875 0)"/>
      <use xlink:href="#DejaVuSans-3" transform="translate(287.65625 0)"/>
      <use xlink:href="#DejaVuSans-b" transform="translate(319.4375 0)"/>
      <use xlink:href="#DejaVuSans-29" transform="translate(358.453125 0)"/>
      <use xlink:href="#DejaVuSans-52" transform="translate(412.40625 0)"/>
      <use xlink:href="#DejaVuSans-55" transform="translate(473.59375 0)"/>
      <use xlink:href="#DejaVuSans-57" transform="translate(514.703125 0)"/>
      <use xlink:href="#DejaVuSans-55" transform="translate(553.90625 0)"/>
      <use xlink:href="#DejaVuSans-44" transform="translate(595.015625 0)"/>
      <use xlink:href="#DejaVuSans-51" transform="translate(656.296875 0)"/>
      <use xlink:href="#DejaVuSans-12" transform="translate(719.671875 0)"/>
      <use xlink:href="#DejaVuSans-26" transform="translate(753.359375 0)"/>
      <use xlink:href="#DejaVuSans-4b" transform="translate(823.1875 0)"/>
      <use xlink:href="#DejaVuSans-48" transform="translate(886.5625 0)"/>
      <use xlink:href="#DejaVuSans-50" transform="translate(948.09375 0)"/>
      <use xlink:href="#DejaVuSans-4e" transform="translate(1045.5 0)"/>
      <use xlink:href="#DejaVuSans-4c" transform="translate(1103.40625 0)"/>
      <use xlink:href="#DejaVuSans-51" transform="translate(1131.1875 0)"/>
      <use xlink:href="#DejaVuSans-c" transform="translate(1194.5625 0)"/>
     </g>
    </g>
   </g>
  </g>
 </g>
 <defs>
  <clipPath id="pf0fa02cd62">
   <rect x="58.042344" y="10.8" width="391.957656" height="247.715312"/>
  </clipPath>
 </defs>
</svg>
